<?xml version="1.0" encoding="utf-8"?>
<!-- Generator: Adobe Illustrator 19.2.1, SVG Export Plug-In . SVG Version: 6.00 Build 0)  -->
<svg version="1.1" id="layer" xmlns="http://www.w3.org/2000/svg" xmlns:xlink="http://www.w3.org/1999/xlink" x="0px" y="0px"
	 viewBox="0 0 652 652" style="enable-background:new 0 0 652 652;" xml:space="preserve">
<style type="text/css">
	.st0{fill:#6F7376;}
</style>
<g id="Capa_2">
	<g id="Capa_1-2">
		<g>
			<g>
				<path class="st0" d="M625.3,303.3c0-38-15.1-45.9-41.5-45.9c-24.8,0-42.8,7.7-42.8,46.4s14.2,46.6,41.8,46.6
					s42.8-10.1,42.8-47.1 M602,304.3c0,23-6.1,27.2-19,27.2c-12.9,0-18.8-5.2-18.8-27.7s6-27,18.9-27c14.4,0,18.6,5.5,18.6,27.5
					 M608.2,222.1c1.1-1.1,1.8-2.5,1.9-4.1c0-1.9-1.3-3.3-4.4-3.3h-13.5c-2.8,0-5.4,1.5-6.9,3.9l-15.9,20.3c-1,1.1-1.6,2.5-1.6,4
					c0,1.9,1.4,3.1,4.3,3.1h8.6c2.7,0,5.3-1.2,7.2-3.1L608.2,222.1z M554.5,401.6h-24.7c-0.7-0.1-1.3,0.4-1.3,1.1c0,0.1,0,0.1,0,0.2
					v6.9c0,1,0,1.2,1.2,1.2h2.6c0.7,0.1,1.3-0.4,1.3-1.1c0,0,0-0.1,0-0.1v-2.3h5v23.6h-1.9c-1,0-1.3,0-1.3,1.2v2.8
					c0,0.8,0,1.3,1.3,1.3h10.1c0.8,0,1.3,0,1.3-1.2v-2.8c0-1-0.5-1.3-1.4-1.3H545v-23.6h5v2.7c-0.1,0.6,0.4,1.2,1,1.2
					c0.1,0,0.1,0,0.2,0h2.6c0.7,0,1.2,0,1.2-1.2v-6.9c0-1,0-1.3-1.3-1.3 M527.5,344.3v-10.1c0-3.3-1.6-4.8-5-4.8h-6V222.8
					c0-3.9-1-6-5.1-6h-23c-3.7,0-5,1.7-5,4.4v10.1c-0.3,2.3,1.4,4.5,3.7,4.8c0.4,0,0.7,0,1.1,0h5.7v92.8h-5.5c-3.7,0-5,1.7-5,4.6
					v10.1c-0.3,2.3,1.3,4.4,3.6,4.7c0.4,0.1,0.8,0,1.2,0h35.3c3.1,0,4.8-0.7,4.8-4.2 M483.3,418.6c0-15.1-4.8-17.7-14.6-17.7
					c-9.8,0-15,3-15,17.7s4.8,18.1,14.6,18.1C478.1,436.7,483.3,432.9,483.3,418.6 M476.3,418.6c0,10.7-2.9,12.5-7.9,12.5
					s-7.8-1.9-7.8-12.6s2.8-12.2,7.9-12.2S476.3,408.3,476.3,418.6 M470.7,303.9c0-27.9-3.1-46.6-37.2-46.6
					c-29.1,0.1-42.5,13.3-42.5,47c0,31.7,10.1,46.1,41.9,46.1c11.3,0.2,22.5-1.7,33.1-5.8c1.8-0.8,3-2.6,2.9-4.6
					c-0.3-3.5-1-6.9-2.2-10.1c-0.7-1.7-1.2-3-3.8-3c-1.7,0.1-3.4,0.5-5.1,1.1c-7.2,2.1-14.8,3.2-22.3,3.1
					c-12.8,0-20.3-3.6-20.3-20.3h49.5c1.4,0.1,2.9-0.2,4.1-1c1.5-0.9,1.9-2.9,1.9-5.8 M448.6,291.8c0.1,0.9,0.1,1.9,0,2.8h-33.1
					c0-12.5,4.8-20.3,17.7-20.3c12.9,0,15.4,6,15.4,17 M409.4,401.6h-21.8c-1,0-1.3,0-1.3,1.3v2.8c-0.1,0.7,0.4,1.3,1.1,1.3
					c0.1,0,0.1,0,0.2,0h1.7v23.6h-1.7c-1,0-1.3,0-1.3,1.2v2.8c0,0.8,0,1.3,1.3,1.3H410c0.9,0,1.3,0,1.3-1.2c0-5.4,0-6.2,0-7.1
					s-0.5-1.2-1.3-1.2h-2.6c-1,0-1.3,0.5-1.3,1.2v2.9h-10.1v-10.1h10.1c0.9,0,1.3,0,1.3-1.1v-3.1c0-0.9,0-1.2-1.3-1.2h-10.1v-7.6h9
					v2.7c0,0.7,0.5,1.2,1.2,1.2c0,0,0.1,0,0.1,0h2.6c0.8,0,1.3,0,1.3-1.2v-7c0-1,0-1.2-1.2-1.2 M332.9,304.5L332.9,304.5
					c0-15.8,3.6-27.1,17.8-27.3c3.4-0.2,6.8-0.2,10.1,0l0.5,10.1c0,2.6,1,4.4,4.4,4.4h9.6c2.8,0,4.6,0,4.6-4.1v-22.2
					c0.4-2.4-1.1-4.8-3.5-5.5c-8.1-1.9-16.4-2.8-24.8-2.6c-31.8,0.2-41.9,15.3-41.9,48.7c0,34.6,13.3,45,39.2,45
					c10.4,0.4,20.7-1.3,30.4-5c1.8-0.7,3-2.4,3-4.4c-0.4-3.5-1.3-6.9-2.5-10.1c-0.3-1.8-1.9-3-3.7-2.8c-1.9,0.2-3.8,0.7-5.6,1.3
					c-6,1.5-12.1,2.2-18.3,2.2c-15,0-18.9-8.8-18.9-27.4 M315.7,402.7c-2.9-0.7-5.8-1-8.7-0.9c-9.1,0-11.5,3.5-11.5,9.4
					c-0.3,3.5,2.2,6.6,5.7,7.2c-4.3,0.4-7.5,4.1-7.1,8.4c0,0.1,0,0.2,0,0.3c0,6.5,2.7,10.1,14.1,10.1c9,0,13.7-2.5,13.7-10.8
					c0-1-0.2-1.9-0.6-2.8c1.7-0.2,3.3-0.6,5-1c0.8,0,1.2-0.7,1.2-1.3c-0.1-1.2-0.3-2.3-0.6-3.5c-0.1-0.5-0.6-0.9-1.1-0.9
					c-0.5-0.1-1.1-0.1-1.6,0c-4.1,1.1-8.3,1.6-12.6,1.4c-0.8,0-1.4,0-1.4,1.6v2.5c0,1.1,0.5,1.4,1.7,1.4h3.6
					c0.3,0.7,0.5,1.5,0.5,2.2c0,4.4-2.2,5.2-7.6,5.2c-5.4,0-7.2-1.3-7.2-5.1s1.2-4.8,5.7-4.9c1.1,0,1.5-0.7,1.5-1.4v-2.8
					c0-0.9,0-1.4-1.5-1.5c-2.1,0.3-4.1-1.2-4.4-3.3c0-0.3,0-0.7,0-1c0-2.7,0.9-4.4,6-4.4c1.1-0.1,2.2-0.1,3.2,0v2.3
					c0,0.7,0,1.1,1.2,1.1h2.4c0.7,0,1.3,0,1.3-1.1v-5.9c0.1-0.7-0.4-1.4-1.1-1.5 M302.4,275.5c0.6-4.1,0.9-8.2,1-12.4
					c0.3-2.1-1.1-4.1-3.1-4.6c-2.6-0.6-5.3-0.8-7.9-0.7c-8.1-0.5-15.8,3.4-20.3,10.1v-3.6c0-3.1-1.2-4.9-5.1-4.9h-23.3
					c-3.9,0-5.1,1.7-5.1,4.6v10.1c0,2.7,1.2,4.4,4.7,4.4h5.6v49.5h-5.5c-3.7,0-4.9,1.7-4.9,4.6v10.1c-0.3,2.3,1.3,4.4,3.6,4.7
					c0.4,0,0.7,0,1.1,0h38.4c2.9,0,4.6-0.7,4.6-4.2v-10.1c0.4-2.3-1.2-4.4-3.4-4.8c-0.4-0.1-0.9-0.1-1.3,0h-8.9v-40.6
					c0-1.5,0.2-3,0.6-4.5c0.7-1.2,1.7-2.2,2.8-2.9c3.9-1.8,8.2-2.6,12.5-2.4c2.8,0,8.1,0.7,10.1,0.7
					C300.4,278.7,302,277.4,302.4,275.5 M236.6,434.8v-7c0-0.9,0-1.1-1.2-1.1h-2.7c-0.6-0.1-1.2,0.4-1.2,1c0,0.1,0,0.1,0,0.2v2.9
					h-10.1v-23.3h2.1c0.9,0,1.3,0,1.3-1.2v-2.9c0-1,0-1.3-1.3-1.3h-10.6c-1,0-1.3,0-1.3,1.2v2.9c-0.1,0.7,0.4,1.3,1.1,1.3
					c0.1,0,0.1,0,0.2,0h1.7v23.6h-1.7c-1,0-1.3,0-1.3,1.2v2.8c0,0.8,0,1.3,1.3,1.3h22.4c0.7,0.1,1.3-0.4,1.3-1.1c0-0.1,0-0.1,0-0.2
					 M226.4,343.8v-10.1c0-3.3-1.4-4.8-4.8-4.8h-6.5v-42.4c1-7.8-1.1-15.7-5.9-21.9c-4.8-5-12.5-7.1-29.5-7.1
					c-9.7-0.1-19.4,1.2-28.8,3.8c-2.3,0.5-3.9,2.7-3.7,5.1c0.2,3.4,0.7,6.8,1.4,10.1c0.2,2,1.9,3.5,3.9,3.6c2.2-0.2,4.4-0.5,6.5-0.9
					c5.6-1,11.3-1.5,17-1.4c10.1,0,13.7,1.9,14.9,5.1c0.8,2.5,1.1,5,1,7.6v4.3c-5.1-0.6-10.3-0.8-15.4-0.7
					c-9.3-0.6-18.6,1.3-26.9,5.6c-7.2,4.8-11.1,13.2-10.1,21.8c0,14.7,6.1,28.5,30.4,28.5c8.8,0.6,17.4-2.8,23.4-9.2v4.1
					c0,2.4,2,3.5,4.7,3.5h24.1c3.1,0,4.6-0.7,4.6-4.2 M192.3,319.9c0.1,2-0.2,3.9-0.7,5.8c-0.5,1.1-1.3,2.2-2.2,2.9
					c-4,2.6-8.8,3.9-13.6,3.6c-10.9,0-13.8-4.8-13.8-11.5c-0.3-3,0.9-6,3.2-7.9c4.5-2.5,9.7-3.6,14.8-3.1c3.7,0,8.8,0,12.3,0.7
					V319.9z M134.5,418.6c0-15.1-4.8-17.7-14.5-17.7s-15.1,3-15.1,17.7s4.8,18.1,14.6,18.1S134.5,432.9,134.5,418.6 M127.6,418.6
					c0,10.7-2.9,12.5-7.9,12.5s-7.8-1.9-7.8-12.6s2.8-12.2,7.9-12.2C124.8,406.3,127.6,408.3,127.6,418.6 M103,283.1
					c12.2-3.5,20.1-15.3,18.5-27.9c0-18.3-9.5-27.5-29.8-29.6c-4.6-0.8-13.4-1.5-18.9-1.5H30.5c-3.7,0-4.9,1.8-4.9,4.6v10.1
					c-0.3,2.3,1.3,4.4,3.6,4.7c0.4,0.1,0.8,0,1.2,0h6.3v85h-6.2c-3.7,0-4.9,1.8-4.9,4.6v10.1c-0.3,2.3,1.3,4.4,3.6,4.7
					c0.4,0.1,0.8,0,1.2,0h41.4c12,0.6,24.1-0.8,35.7-4c12.3-5.5,19.6-18.4,17.9-31.8C127,298,117.1,285.2,103,283.1 M97.1,259.3
					c0.5,6-3,11.6-8.6,13.8c-4.7,1.4-9.6,1.8-14.4,1.4H60.9v-31h11.8c4.6-0.1,9.3,0.4,13.8,1.5c6.7,1.3,11.2,7.7,10.1,14.4
					 M99.9,310.2c0,9.3-3.3,14.3-8.9,16.3c-5.9,1.5-11.9,2.2-18,1.9H60.9v-34.3h14.2c5.4-0.4,10.8,0.2,16,1.6c6,2.1,9.9,8,9.2,14.4
					 M63.6,402.9v2.8c-0.1,0.7,0.4,1.3,1.1,1.3c0.1,0,0.1,0,0.2,0h1.3v23.6H65c-1.1,0-1.4,0-1.4,1.2v2.8c0,0.8,0,1.3,1.3,1.3H75
					c0.8,0,1.2,0,1.2-1.2V432c0-1,0-1.3-1.3-1.3h-1.5v-10.1h12.4v10.1h-1.6c-1,0-1.4,0-1.4,1.2v2.8c-0.1,0.7,0.4,1.3,1.1,1.3
					c0.1,0,0.1,0,0.2,0h10.1c0.8,0,1.2,0,1.2-1.2V432c0-1,0-1.3-1.3-1.3h-1.5v-23.2h1.8c0.8,0,1.2,0,1.2-1.2v-2.9c0-1,0-1.3-1.3-1.3
					H84.2c-1,0-1.4,0-1.4,1.3v2.8c-0.1,0.7,0.4,1.3,1.1,1.3c0.1,0,0.1,0,0.2,0h1.7v8.4H73.4v-8.4h1.8c0.8,0,1.2,0,1.2-1.2v-2.9
					c0-1,0-1.3-1.3-1.3H65c-1.1,0-1.4,0-1.4,1.3 M141.8,403.3v6.9c0,1,0.5,1.2,1.3,1.2h2.5c0.7,0.1,1.3-0.4,1.3-1.1c0,0,0-0.1,0-0.1
					v-2.7h5v23.6h-1.8c-1.1,0-1.4,0-1.4,1.2v2.8c0,0.8,0,1.3,1.3,1.3h10.7c0.9,0,1.3,0,1.3-1.2v-2.8c0-1,0-1.3-1.3-1.3h-1.9v-23.6h5
					v2.7c-0.1,0.6,0.4,1.2,1,1.2c0.1,0,0.1,0,0.2,0h2.7c0.8,0,1.2,0,1.2-1.2v-6.9c0-1,0-1.3-1.3-1.3h-24.5c-0.7-0.1-1.3,0.4-1.3,1.1
					C141.8,403.2,141.8,403.2,141.8,403.3 M177.1,403.3v2.8c-0.1,0.7,0.4,1.3,1.1,1.3c0.1,0,0.1,0,0.2,0h1.7v23.6h-1.7
					c-1,0-1.3,0-1.3,1.2v2.8c0,0.8,0,1.3,1.3,1.3h22.4c0.9,0,1.3,0,1.3-1.2c0-5.4,0-6.2,0-7.1s-0.5-1.2-1.3-1.2h-2.7
					c-0.6-0.1-1.2,0.3-1.3,0.9c0,0.1,0,0.2,0,0.3v2.9h-10.1V421h10.1c0.9,0,1.3,0,1.3-1.1v-3.1c0-0.9,0-1.2-1.3-1.2h-10.1v-8h9.1
					v2.7c0,0.7,0.5,1.2,1.2,1.2c0,0,0.1,0,0.1,0h2.7c0.7,0,1.2,0,1.2-1.2v-7c0-1,0-1.2-1.2-1.2h-21.4
					C177.4,402,177.1,402,177.1,403.3 M244,427.8c0,0.6,0,1.2,0,6.4c0,0.7,0.5,1.4,1.2,1.6c3.3,1.1,6.7,1.5,10.1,1.4
					c10.1,0,13-4.3,13-10.8s-2-8.2-8.3-10.1l-4.3-1c-3.7-0.9-4.2-2.5-4.2-4.4c0-1.8,0.9-4.2,5.1-4.2c1.7-0.1,3.3-0.1,5,0v2.9
					c-0.1,0.7,0.4,1.3,1.1,1.3c0.1,0,0.1,0,0.2,0h2.7c0.8,0,1.2,0,1.2-1.2v-6.5c0.1-0.7-0.4-1.4-1.1-1.6c-2.9-0.7-5.9-1-8.8-1
					c-9.3,0-12.5,4.2-12.5,10.1c-0.7,4.9,2.7,9.4,7.6,10.1c0.1,0,0.2,0,0.3,0l4.2,0.9c4.2,1,4.7,2.3,4.7,4.6c0,2.2-0.6,4.3-5.8,4.3
					c-2.1,0-4.1-0.2-6.1-0.7l-0.4-2.2c0-0.8,0-1.3-1.3-1.3h-2.6c-0.7-0.1-1.3,0.4-1.3,1.1c0,0.1,0,0.1,0,0.2 M350.3,402.9v2.8
					c-0.1,0.7,0.4,1.3,1.1,1.3c0.1,0,0.1,0,0.2,0h1.7v23.6h-1.7c-1,0-1.3,0-1.3,1.2v2.8c0,0.8,0,1.3,1.3,1.3h10.8
					c0.8,0,1.2,0,1.2-1.2V432c0-1,0-1.3-1.3-1.3h-2.1v-8.4h5.1l5.4,11.6c0.5,1.6,2.1,2.5,3.8,2.2h4.6c0.8,0,1.2,0,1.2-1.2V432
					c0-1,0-1.3-1.2-1.3h-1.3c-1.1,0-1.3,0-1.6-1.1l-4.6-8.6c3.8-1.4,6.1-5.2,5.7-9.2c0.6-3.7-1.4-7.4-4.9-8.9c-3-1-6.2-1.4-9.4-1.2
					h-11.7c-1,0-1.3,0-1.3,1.3 M360,407.1h3c1.6-0.1,3.3,0.1,4.9,0.5c1.5,0.6,2.3,1.8,2.3,4.5c0.2,1.8-0.7,3.6-2.4,4.4
					c-1.5,0.5-3.1,0.7-4.7,0.6H360L360,407.1z M420,427.4c0,0.6,0,1.2,0,6.4c-0.1,0.8,0.5,1.5,1.2,1.6c3.3,1.1,6.7,1.5,10.1,1.4
					c10.1,0,13-4.3,13-10.8s-2.1-8.2-8.4-10.1l-4.2-1c-3.8-0.9-4.3-2.5-4.3-4.4c0-1.8,1-4.2,5.2-4.2c1.7-0.1,3.3-0.1,5,0v2.9
					c-0.1,0.7,0.4,1.3,1.1,1.3c0.1,0,0.1,0,0.2,0h2.7c0.7,0,1.2,0,1.2-1.2v-6.5c0-0.8-0.5-1.4-1.2-1.6c-2.9-0.7-5.8-1-8.7-1
					c-9.4,0-12.6,4.2-12.6,10.1c-0.6,4.9,2.8,9.5,7.8,10.1c0,0,0.1,0,0.1,0l4.2,0.9c4.2,1,4.7,2.3,4.7,4.6c0,2.2-0.7,4.3-5.8,4.3
					c-2.1,0-4.2-0.2-6.2-0.7v-3.1c0-0.8,0-1.3-1.3-1.3h-2.4c-0.8,0-1.2,0-1.2,1.3 M492.4,402.9v2.8c-0.1,0.7,0.4,1.3,1.1,1.3
					c0.1,0,0.1,0,0.2,0h1.7v23.6h-1.7c-1,0-1.3,0-1.3,1.2v2.8c0,0.8,0,1.3,1.3,1.3h10.8c0.8,0,1.2,0,1.2-1.2V432c0-1,0-1.3-1.3-1.3
					h-1.8v-8.4h5.2l5,11.6c0.6,1.6,2.2,2.5,3.9,2.2h4.5c0.8,0,1.2,0,1.2-1.2V432c0-1,0-1.3-1.2-1.3h-1.2c-1.1,0-1.3,0-1.7-1.1
					l-4.5-8.6c3.8-1.4,6.1-5.2,5.7-9.2c0.5-3.8-1.5-7.4-5-8.9c-3-1-6.2-1.4-9.4-1.2h-11c-1,0-1.3,0-1.3,1.3 M502.6,407.5h3
					c1.6-0.1,3.3,0.1,4.9,0.5c1.5,0.6,2.4,1.8,2.4,4.5c0.2,1.9-0.8,3.6-2.5,4.4c-1.5,0.5-3.1,0.7-4.7,0.6h-3.1V407.5z M563.5,427.8
					c0,0.6,0,1.2,0,6.4c0,0.7,0.5,1.4,1.2,1.6c3.3,1,6.7,1.5,10.1,1.4c10.1,0,12.9-4.3,12.9-10.8s-2-8.2-8.3-10.1l-4.3-1
					c-3.7-0.9-4.2-2.5-4.2-4.4c0-1.8,1-4.2,5.2-4.2c1.6-0.1,3.2-0.1,4.9,0v2.9c0,0.8,0,1.3,1.4,1.3h2.6c0.8,0,1.2,0,1.2-1.2v-6.5
					c0.1-0.7-0.4-1.4-1.1-1.6c-2.9-0.7-5.9-1-8.8-1c-9.3,0-12.5,4.2-12.5,10.1c-0.7,4.9,2.8,9.5,7.8,10.1c0,0,0,0,0,0l4.3,0.9
					c4.1,1,4.6,2.3,4.6,4.6c0,2.2-0.6,4.3-5.8,4.3c-2.1,0-4.1-0.2-6.1-0.7v-3.1c0-0.8,0-1.3-1.3-1.3h-2.6c-0.7-0.1-1.3,0.4-1.3,1.1
					c0,0.1,0,0.1,0,0.2"/>
			</g>
		</g>
	</g>
</g>
</svg>
