<svg id="_20040303_OK" data-name="20040303 OK" xmlns="http://www.w3.org/2000/svg" viewBox="0 0 515.61 340.71"><defs><style>.cls-1{fill:#3e4391;}.cls-2{fill:#fff;}</style></defs><title>clairefontaine-logo</title><path class="cls-1" d="M529.57,87.12A11.45,11.45,0,0,0,518.14,75.7H284.42a11.4,11.4,0,0,0-9.9,17.15L391.45,296.32a11.38,11.38,0,0,0,19.8-.05l116.8-203.5A11.22,11.22,0,0,0,529.57,87.12Z" transform="translate(-143.8 -75.7)"/><path class="cls-2" d="M430.54,216.78c2.33,2.34.06,4.2-2.56,1.26-6.77-7.62-11.07-19.89-11.5-35.57a74.72,74.72,0,0,1-16.89-4.74c-4.23-1.9-2-5.17,1.69-3.1,9.35,5.3,39.49,9.13,40.69,2.27,1.39-7.9-1.09-18.7-1.81-22.05-.41-2,3.94-1.92,3.94-4.24,0-2-4-.77-6.8-9.33-1.87-5.82-2.94-19.1-6.76-28-3.94-9.26-41.26-17-52.6,5.09C362.2,149,407.26,209.07,411,232.46c4.25,26.32-.12,50.55-8.64,65.7a7.62,7.62,0,0,0,5.57-3.78l42.83-74.65c-5.55-4.21-13.32-8-24.55-8.56A33.19,33.19,0,0,0,430.54,216.78Zm.78-77.22c0,4.37-10.24,3.53-17.51-.07C421.11,135.84,431.32,134.58,431.32,139.56Zm-78.4,15.29C349.1,113.27,375,78.49,421.63,94.61c-24.29-21.38-58.85-12.93-75.57,5.47-17.39,19.14-20.57,55.19-16.49,80.9,15.71,27.33,32.06,55.81,44.47,77.39,1.6-5.06,2.72-12.85,2.44-22.29C375.86,217,355.1,178.49,352.92,154.85ZM473.6,96.2a51.61,51.61,0,0,0-39.28,18.08,94.53,94.53,0,0,1,2.57,10.86,125.91,125.91,0,0,0,3.47,15.16c2.46,7,6.93,6.24,6.94,10.92,0,3.1-3.91,3.25-3.5,5.27.83,3.83,3.17,14.1,1.28,22.46-.64,2.75-3.59,4-6.55,4.38-.77.1-1.59.19-2.42.27a51.58,51.58,0,0,0,26.79,15l49-85.43A51.65,51.65,0,0,0,473.6,96.2Z" transform="translate(-143.8 -75.7)"/><path class="cls-1" d="M152.44,368.67a26.35,26.35,0,0,0-8.64,19.42,24.75,24.75,0,0,0,9.39,20,35.24,35.24,0,0,0,22.36,7.93c4.41,0,7.95-.92,12.62-2.22V401.25a21.65,21.65,0,0,1-12.29,4c-10.95,0-18.59-7-18.59-17.05s7.7-17.35,18.34-17.35a21.1,21.1,0,0,1,12.54,4V362.34A38.75,38.75,0,0,0,175.05,360,34,34,0,0,0,152.44,368.67Zm43.81,46.57h12.38V361.06H196.25Zm69.39,0H278V380.36H265.64Zm34.3-29.16h-.14v-5.72H287.44v34.88H299.8V401.17c0-6,1.7-10.54,8.57-10.54a9.9,9.9,0,0,1,5.23,1.16v-11.9h-2.37C306.4,379.89,302.32,381.79,299.94,386.08Zm36.27-6.87c-11.36,0-19.31,7-19.31,18.63,0,12,8.63,18.56,20.19,18.56,8,0,15.77-3.74,17.75-12h-11.9a6.22,6.22,0,0,1-5.92,3.19c-5.1,0-7.75-2.72-7.75-7.75h26v-1.29C355.31,386.69,348.31,379.21,336.21,379.21Zm-6.95,13.67c.79-3.79,3.93-5.78,7.71-5.78a7.3,7.3,0,0,1,7.36,5.78ZM367,365.25c-3.4,3.76-3.53,7.19-3.53,11.87v4.29h-4.35v9.89h4.35v23.94h12.36V391.3h8.64v-9.89h-8.64v-5.47c0-3.83,1.1-5.67,4.29-5.67a10.69,10.69,0,0,1,4.35,1.12V361a11.43,11.43,0,0,0-5.3-1.19A16.07,16.07,0,0,0,367,365.25Zm92.8,14c-4.84,0-8.3,1.43-11.16,5.64h-.14v-4.49H436.08v34.88h12.38V397.16c0-4.35,1.43-8.09,6.46-8.09,6.12,0,5.58,5.84,5.58,9.17v17h12.37V393.69C472.87,385.13,469.13,379.21,459.76,379.21Zm36.05-9.32H483.44v10.47h-4v10.2h4v24.68h12.37V390.56h7v-10.2h-7Zm59.81,45.35H568V380.36H555.62Zm45.44-36c-4.83,0-8.29,1.43-11.15,5.64h-.14v-4.49H577.4v34.88h12.37V397.16c0-4.35,1.42-8.09,6.46-8.09,6.11,0,5.58,5.84,5.58,9.17v17h12.37V393.69C614.18,385.13,610.44,379.21,601.06,379.21Zm58.35,19.38c0-11.9-7-19.38-19.11-19.38-11.35,0-19.3,7-19.3,18.63,0,12,8.64,18.56,20.19,18.56,7.95,0,15.78-3.74,17.74-12H647a6.19,6.19,0,0,1-5.91,3.19c-5.1,0-7.75-2.72-7.75-7.75h26Zm-26-5.71c.79-3.79,3.93-5.78,7.72-5.78a7.3,7.3,0,0,1,7.34,5.78ZM271.91,361.42a6.55,6.55,0,1,0,6.55,6.55A6.56,6.56,0,0,0,271.91,361.42Zm-28.1,22.34A14.27,14.27,0,0,0,233,379.21c-10.33,0-17.47,8.56-17.47,18.56s7.27,18.63,17.6,18.63c4.09,0,8.37-1.56,10.54-5h.15v3.87h12.36V380.36H243.81Zm-7.56,22a7.86,7.86,0,1,1,7.86-7.86A7.85,7.85,0,0,1,236.25,405.75Zm325.5-44.33A6.55,6.55,0,1,0,568.3,368,6.55,6.55,0,0,0,561.75,361.42Zm-28,22.34c-2.58-3.05-6.79-4.55-10.81-4.55-10.33,0-17.47,8.56-17.47,18.56s7.27,18.63,17.61,18.63c4.08,0,8.36-1.56,10.54-5h.13v3.87h12.38V380.36H533.77Zm-7.48,22a7.86,7.86,0,1,1,7.86-7.86A7.85,7.85,0,0,1,526.29,405.75Zm-118-26.54c-11.21,0-21,6.73-21,18.63s9.85,18.56,21,18.56,21-6.73,21-18.56S419.48,379.21,408.25,379.21Zm0,26.54a7.86,7.86,0,1,1,7.86-7.86A7.85,7.85,0,0,1,408.29,405.75Z" transform="translate(-143.8 -75.7)"/></svg>