<svg xmlns="http://www.w3.org/2000/svg" xmlns:xlink="http://www.w3.org/1999/xlink" width="266pt" height="140pt" viewBox="0 0 266 140" version="1.1">
<g id="surface10">
<path style=" stroke:none;fill-rule:nonzero;fill: #C0C0C0;fill-opacity:1;" d="M 246.703125 60.550781 L 253.761719 60.550781 L 253.761719 79.683594 L 246.703125 79.683594 Z M 246.703125 60.550781 "/>
<path style=" stroke:none;fill-rule:nonzero;fill: #C0C0C0;fill-opacity:1;" d="M 217.328125 65.621094 L 209.78125 65.621094 L 204.027344 76.269531 L 198.4375 65.621094 L 190.523438 65.621094 L 199.664062 79.683594 L 208.191406 79.683594 Z M 217.328125 65.621094 "/>
<path style=" stroke:none;fill-rule:nonzero;fill: #C0C0C0;fill-opacity:1;" d="M 161.882812 79.683594 L 161.882812 76.292969 L 147.277344 76.292969 L 147.277344 60.488281 L 139.730469 60.488281 L 139.730469 79.683594 Z M 161.882812 79.683594 "/>
<path style=" stroke:none;fill-rule:nonzero;fill: #C0C0C0;fill-opacity:1;" d="M 241.847656 79.683594 L 241.847656 69.722656 C 241.847656 66.714844 238.585938 65.167969 230.710938 65.167969 C 221.164062 65.167969 219.285156 67.789062 218.917969 69.785156 L 225.773438 69.785156 C 226.222656 68.605469 227.691406 67.980469 230.667969 67.980469 C 233.402344 67.980469 234.871094 68.433594 234.871094 69.507812 C 234.871094 69.871094 234.625 70.300781 233.566406 70.535156 C 231.769531 70.921875 229.8125 70.964844 227.691406 71.160156 C 224.140625 71.503906 222.386719 71.890625 221.042969 72.425781 C 218.878906 73.222656 217.980469 74.378906 217.980469 75.863281 C 217.980469 78.074219 220.386719 80.070312 226.46875 80.070312 C 230.21875 80.070312 232.914062 79.339844 235.035156 78.050781 L 235.035156 79.683594 Z M 234.832031 74.507812 C 234.832031 75.433594 233.730469 77.40625 228.546875 77.40625 C 226.179688 77.40625 225 76.785156 225 75.667969 C 225 74.574219 226.425781 73.949219 228.957031 73.671875 C 230.953125 73.4375 233.320312 73.242188 234.871094 72.855469 L 234.871094 74.507812 Z M 234.832031 74.507812 "/>
<path style=" stroke:none;fill-rule:nonzero;fill: #C0C0C0;fill-opacity:1;" d="M 188.484375 79.683594 L 188.484375 69.722656 C 188.484375 66.714844 185.222656 65.167969 177.347656 65.167969 C 167.800781 65.167969 165.921875 67.789062 165.554688 69.785156 L 172.410156 69.785156 C 172.859375 68.605469 174.328125 67.980469 177.304688 67.980469 C 180.039062 67.980469 181.507812 68.433594 181.507812 69.507812 C 181.507812 69.871094 181.261719 70.300781 180.203125 70.535156 C 178.40625 70.921875 176.449219 70.964844 174.328125 71.160156 C 170.777344 71.503906 169.023438 71.890625 167.679688 72.425781 C 165.515625 73.222656 164.617188 74.378906 164.617188 75.863281 C 164.617188 78.074219 167.023438 80.070312 173.105469 80.070312 C 176.855469 80.070312 179.550781 79.339844 181.710938 78.050781 L 181.710938 79.683594 Z M 181.46875 74.507812 C 181.46875 75.433594 180.367188 77.40625 175.183594 77.40625 C 172.859375 77.40625 171.636719 76.785156 171.636719 75.667969 C 171.636719 74.574219 173.0625 73.949219 175.59375 73.671875 C 177.589844 73.4375 179.917969 73.242188 181.46875 72.855469 Z M 181.46875 74.507812 "/>
<path style=" stroke:none;fill-rule:nonzero;fill: #C0C0C0;fill-opacity:1;" d="M 134.835938 73.628906 L 134.835938 72.46875 C 134.835938 68.839844 131.777344 65.167969 122.394531 65.167969 C 110.722656 65.167969 108.96875 70.085938 108.96875 72.878906 C 108.96875 77.34375 113.457031 80.15625 122.105469 80.15625 C 129.042969 80.15625 133.695312 78.007812 134.507812 75.539062 L 127.289062 75.539062 C 126.675781 76.226562 125.695312 77.148438 121.945312 77.148438 C 118.109375 77.148438 116.394531 75.648438 116.191406 73.648438 L 134.835938 73.648438 Z M 127.574219 71.160156 L 116.230469 71.160156 C 116.519531 69.742188 118.066406 68.152344 122.1875 68.152344 C 126.226562 68.175781 127.289062 69.742188 127.574219 71.160156 "/>
<path style=" stroke:none;fill-rule:nonzero;fill: #C0C0C0;fill-opacity:1;" d="M 106.195312 69.613281 C 106.195312 64.675781 101.75 60.488281 91.019531 60.488281 L 75.394531 60.488281 L 75.394531 79.664062 L 90.980469 79.664062 C 100.238281 79.683594 106.195312 76.140625 106.195312 69.613281 M 98.28125 69.914062 C 98.28125 73.308594 96.242188 76.398438 89.0625 76.398438 L 82.902344 76.398438 L 82.902344 63.773438 L 89.0625 63.773438 C 96.242188 63.773438 98.28125 66.09375 98.28125 69.914062 "/>
<path style=" stroke:none;fill-rule:nonzero;fill: #C0C0C0;fill-opacity:1;" d="M 40.796875 71.933594 C 41.574219 72.425781 43.488281 73.734375 43.488281 73.734375 C 43.488281 73.734375 41.574219 75.046875 40.796875 75.539062 C 39.820312 76.164062 38.308594 76.570312 36.636719 76.570312 C 33.65625 76.570312 31.25 75.304688 31.25 73.734375 C 31.25 72.167969 33.65625 70.902344 36.636719 70.902344 C 38.308594 70.902344 39.820312 71.308594 40.796875 71.933594 "/>
<path style=" stroke:none;fill-rule:nonzero;fill: #C0C0C0;fill-opacity:1;" d="M 57.117188 79.621094 C 54.21875 79.449219 51.730469 78.71875 49.242188 77.34375 C 48.875 77.148438 48.386719 76.871094 47.894531 76.550781 C 47.203125 77 46.550781 77.40625 46.101562 77.707031 C 44.714844 78.589844 43.328125 79.234375 41 79.621094 L 41 79.664062 L 57.117188 79.664062 Z M 57.117188 79.621094 "/>
<path style=" stroke:none;fill-rule:nonzero;fill: #C0C0C0;fill-opacity:1;" d="M 60.625 68.132812 L 52.015625 68.132812 L 47.894531 70.835938 L 52.261719 73.628906 Z M 60.625 68.132812 "/>
<path style=" stroke:none;fill-rule:nonzero;fill: #C0C0C0;fill-opacity:1;" d="M 46.140625 69.65625 L 33.046875 57.71875 L 8.933594 79.683594 L 32.476562 79.683594 L 32.476562 79.640625 C 28.4375 79.0625 24.480469 76.722656 24.480469 73.734375 C 24.480469 70.214844 29.90625 67.335938 36.636719 67.335938 C 40.390625 67.335938 43.53125 68.175781 46.019531 69.722656 Z M 46.140625 69.65625 "/>
</g>
</svg>
