<svg xmlns="http://www.w3.org/2000/svg" xmlns:xlink="http://www.w3.org/1999/xlink" width="266pt" height="140pt" viewBox="0 0 266 140" version="1.1">
<g id="surface12">
<path style=" stroke:none;fill-rule:evenodd;fill: #C0C0C0;fill-opacity:1;" d="M 66.484375 68.1875 L 68.179688 69.792969 C 68.734375 70.320312 69.425781 70.992188 70.246094 71.808594 L 70.183594 71.910156 C 68.910156 71.867188 68.140625 71.847656 67.875 71.847656 C 67.585938 71.847656 66.773438 71.867188 65.4375 71.910156 C 65.316406 71.769531 65.140625 71.5625 64.914062 71.296875 C 64.441406 70.761719 63.824219 70.152344 63.066406 69.464844 C 62.941406 69.347656 62.851562 69.277344 62.789062 69.253906 C 62.664062 69.167969 62.511719 69.125 62.324219 69.117188 C 62.304688 69.175781 62.234375 69.28125 62.109375 69.441406 C 62.007812 69.589844 61.882812 69.804688 61.738281 70.082031 C 61.617188 70.347656 61.390625 70.957031 61.0625 71.910156 C 60.855469 71.910156 60.507812 71.902344 60.015625 71.886719 C 59.519531 71.859375 59.140625 71.847656 58.875 71.847656 C 58.605469 71.847656 58.238281 71.855469 57.765625 71.871094 C 57.210938 71.898438 56.828125 71.910156 56.625 71.910156 L 56.777344 71.597656 C 57.046875 71.152344 57.4375 70.488281 57.949219 69.605469 C 58.710938 68.152344 59.449219 66.597656 60.167969 64.941406 C 60.414062 64.382812 60.742188 63.550781 61.15625 62.449219 C 61.792969 62.488281 62.59375 62.511719 63.558594 62.511719 C 64.214844 62.511719 64.957031 62.488281 65.777344 62.449219 C 65.304688 63.175781 64.585938 64.511719 63.621094 66.457031 C 63.433594 66.816406 63.15625 67.347656 62.789062 68.050781 C 62.683594 68.257812 62.632812 68.433594 62.632812 68.578125 C 62.675781 68.59375 62.765625 68.597656 62.910156 68.589844 C 65.007812 67.871094 67.316406 66.980469 69.84375 65.917969 C 70.667969 65.9375 71.160156 65.945312 71.324219 65.945312 C 71.632812 65.945312 72.09375 65.9375 72.710938 65.917969 L 72.648438 66.019531 C 71.972656 66.289062 70.945312 66.652344 69.566406 67.109375 C 68.128906 67.585938 67.101562 67.945312 66.484375 68.1875 Z M 66.484375 68.1875 "/>
<path style=" stroke:none;fill-rule:evenodd;fill: #C0C0C0;fill-opacity:1;" d="M 78.722656 72.085938 C 76.769531 72.085938 75.238281 71.886719 74.128906 71.484375 C 73.039062 71.074219 72.496094 70.515625 72.496094 69.804688 C 72.496094 69.570312 72.558594 69.324219 72.679688 69.066406 C 73.152344 68.085938 74.222656 67.292969 75.886719 66.683594 C 76.667969 66.398438 77.601562 66.175781 78.691406 66.007812 C 79.78125 65.839844 80.804688 65.757812 81.773438 65.757812 C 84.300781 65.757812 86.046875 66.03125 87.011719 66.582031 C 87.710938 66.984375 88.058594 67.484375 88.058594 68.085938 C 88.058594 68.320312 88.007812 68.554688 87.90625 68.789062 C 87.433594 69.765625 86.394531 70.554688 84.792969 71.144531 C 83.109375 71.773438 81.082031 72.085938 78.722656 72.085938 Z M 81.710938 66.296875 C 80.765625 66.296875 79.914062 66.503906 79.152344 66.921875 C 78.597656 67.238281 78.167969 67.625 77.859375 68.074219 C 77.652344 68.394531 77.46875 68.710938 77.304688 69.027344 C 77.078125 69.496094 76.964844 69.90625 76.964844 70.257812 C 76.964844 71.109375 77.640625 71.535156 79 71.535156 C 80.253906 71.535156 81.332031 71.117188 82.234375 70.28125 C 82.769531 69.796875 83.179688 69.234375 83.46875 68.589844 C 83.507812 68.445312 83.558594 68.238281 83.621094 67.960938 C 83.664062 67.804688 83.683594 67.65625 83.683594 67.523438 C 83.683594 66.703125 83.027344 66.296875 81.710938 66.296875 Z M 81.710938 66.296875 "/>
<path style=" stroke:none;fill-rule:evenodd;fill: #C0C0C0;fill-opacity:1;" d="M 91.882812 65.90625 L 92.15625 65.917969 C 92.710938 65.945312 93.320312 65.957031 93.976562 65.957031 C 94.46875 65.957031 95.210938 65.941406 96.195312 65.90625 L 95.609375 66.835938 C 96.246094 66.523438 97.027344 66.269531 97.953125 66.070312 C 98.898438 65.871094 99.8125 65.769531 100.695312 65.769531 C 102.769531 65.769531 103.953125 66.152344 104.238281 66.921875 C 105.902344 66.144531 107.648438 65.757812 109.476562 65.757812 C 111 65.757812 112.097656 65.945312 112.777344 66.320312 C 113.226562 66.570312 113.453125 66.882812 113.453125 67.261719 C 113.453125 67.460938 113.390625 67.699219 113.269531 67.976562 C 113.042969 68.425781 112.714844 69.097656 112.28125 69.992188 L 111.390625 71.910156 L 111.113281 71.898438 C 110.371094 71.863281 109.753906 71.847656 109.261719 71.847656 C 108.996094 71.847656 108.246094 71.867188 107.011719 71.910156 C 107.8125 70.539062 108.390625 69.480469 108.738281 68.726562 C 108.945312 68.292969 109.066406 67.949219 109.109375 67.699219 C 109.148438 67.433594 109.015625 67.210938 108.707031 67.035156 C 108.421875 66.859375 107.957031 66.773438 107.320312 66.773438 C 106.375 66.773438 105.605469 66.925781 105.007812 67.234375 C 104.597656 67.445312 104.28125 67.757812 104.054688 68.175781 C 103.929688 68.394531 103.746094 68.726562 103.5 69.179688 C 103.253906 69.78125 102.863281 70.691406 102.328125 71.910156 C 102.121094 71.910156 101.773438 71.902344 101.28125 71.886719 C 100.808594 71.859375 100.4375 71.847656 100.171875 71.847656 C 99.902344 71.847656 99.523438 71.855469 99.03125 71.871094 C 98.457031 71.898438 98.074219 71.910156 97.890625 71.910156 C 98.320312 71.257812 98.898438 70.277344 99.617188 68.964844 C 99.863281 68.414062 99.984375 67.984375 99.984375 67.675781 C 99.984375 67.097656 99.398438 66.808594 98.230469 66.808594 C 96.667969 66.808594 95.597656 67.3125 95.023438 68.3125 C 94.921875 68.464844 94.789062 68.699219 94.625 69.015625 C 94.625 69.015625 94.222656 69.980469 93.421875 71.910156 C 92.1875 71.867188 91.449219 71.847656 91.203125 71.847656 C 90.9375 71.847656 90.574219 71.855469 90.125 71.871094 C 89.570312 71.898438 89.199219 71.910156 89.015625 71.910156 C 89.425781 71.125 90.03125 69.945312 90.832031 68.375 C 90.996094 68.015625 91.347656 67.195312 91.882812 65.90625 Z M 91.882812 65.90625 "/>
<path style=" stroke:none;fill-rule:evenodd;fill: #C0C0C0;fill-opacity:1;" d="M 120.511719 69.226562 C 119.75 69.4375 119.257812 69.78125 119.03125 70.257812 C 118.96875 70.382812 118.9375 70.496094 118.9375 70.59375 C 118.9375 71.003906 119.378906 71.207031 120.265625 71.207031 C 121.785156 71.207031 122.75 70.769531 123.160156 69.890625 C 123.386719 69.433594 123.601562 69.03125 123.808594 68.6875 C 123.355469 68.765625 122.90625 68.832031 122.453125 68.890625 C 122 68.949219 121.351562 69.0625 120.511719 69.226562 Z M 117.738281 67.386719 L 117.519531 67.386719 L 117.492188 66.632812 C 119.257812 66.074219 121.292969 65.792969 123.59375 65.792969 C 124.949219 65.792969 126.066406 65.898438 126.953125 66.105469 C 128 66.351562 128.523438 66.710938 128.523438 67.183594 C 128.523438 67.335938 128.378906 67.710938 128.09375 68.3125 C 127.742188 68.875 127.3125 69.722656 126.796875 70.859375 C 126.714844 71.125 126.878906 71.300781 127.289062 71.382812 C 127.3125 71.382812 127.515625 71.378906 127.90625 71.371094 C 128.175781 71.371094 128.308594 71.402344 128.308594 71.460938 C 128.308594 71.476562 128.289062 71.523438 128.246094 71.597656 L 128.183594 71.722656 C 128 71.765625 127.464844 71.847656 126.582031 71.972656 C 125.964844 72.023438 125.523438 72.046875 125.257812 72.046875 C 123.757812 72.046875 122.882812 71.75 122.636719 71.160156 C 121.488281 71.761719 120.027344 72.0625 118.261719 72.0625 C 117.132812 72.0625 116.226562 71.953125 115.550781 71.734375 C 114.871094 71.519531 114.53125 71.207031 114.53125 70.808594 C 114.53125 70.449219 114.769531 70.105469 115.242188 69.78125 C 115.734375 69.453125 116.371094 69.207031 117.152344 69.039062 C 117.953125 68.875 119.296875 68.699219 121.1875 68.515625 C 121.742188 68.464844 122.542969 68.355469 123.59375 68.1875 C 124.023438 68.0625 124.238281 67.84375 124.238281 67.535156 C 124.238281 67.285156 124.003906 67.082031 123.53125 66.921875 C 123.058594 66.753906 122.492188 66.671875 121.835938 66.671875 C 120.644531 66.671875 119.410156 66.859375 118.136719 67.234375 C 118.054688 67.269531 117.921875 67.320312 117.738281 67.386719 Z M 117.738281 67.386719 "/>
<path style=" stroke:none;fill-rule:evenodd;fill: #C0C0C0;fill-opacity:1;" d="M 131.945312 72.824219 C 131.800781 72.910156 131.675781 73.0625 131.574219 73.289062 C 131.535156 73.390625 131.511719 73.484375 131.511719 73.578125 C 131.511719 73.945312 131.863281 74.226562 132.5625 74.417969 C 133.199219 74.601562 134.019531 74.691406 135.027344 74.691406 C 136.175781 74.691406 137.164062 74.546875 137.984375 74.253906 C 138.808594 73.960938 139.300781 73.644531 139.464844 73.300781 C 139.527344 73.175781 139.554688 73.0625 139.554688 72.964844 C 139.554688 72.578125 139.136719 72.324219 138.292969 72.199219 C 137.757812 72.125 136.824219 72.085938 135.488281 72.085938 C 134.605469 72.085938 133.925781 72.125 133.453125 72.199219 C 132.777344 72.308594 132.273438 72.515625 131.945312 72.824219 Z M 146.027344 66.382812 L 143.253906 66.34375 C 143.972656 66.644531 144.332031 66.988281 144.332031 67.375 C 144.332031 67.773438 144.035156 68.167969 143.441406 68.550781 C 142.84375 68.9375 142.113281 69.222656 141.25 69.417969 C 140.140625 69.667969 138.640625 69.796875 136.753906 69.804688 C 136.503906 69.804688 136.269531 69.804688 136.042969 69.804688 C 135.714844 69.8125 135.476562 69.84375 135.335938 69.890625 C 135.046875 70.007812 134.871094 70.117188 134.8125 70.21875 C 134.707031 70.410156 134.820312 70.574219 135.148438 70.707031 C 135.253906 70.730469 135.40625 70.765625 135.613281 70.808594 C 135.835938 70.847656 136.300781 70.875 137 70.882812 L 139.617188 70.921875 C 141.160156 70.945312 142.195312 71.082031 142.730469 71.335938 C 143.183594 71.550781 143.410156 71.847656 143.410156 72.222656 C 143.410156 72.332031 143.386719 72.4375 143.347656 72.535156 C 142.9375 73.40625 141.777344 74.082031 139.863281 74.566406 C 138.160156 74.992188 136.199219 75.207031 133.976562 75.207031 C 132.5625 75.207031 131.371094 75.109375 130.402344 74.917969 C 129.191406 74.675781 128.585938 74.316406 128.585938 73.839844 C 128.585938 73.742188 128.605469 73.640625 128.648438 73.539062 C 128.976562 72.855469 130.042969 72.386719 131.851562 72.136719 C 131.953125 72.121094 132.140625 72.070312 132.40625 71.984375 L 132.191406 71.921875 C 131.429688 71.8125 131.050781 71.578125 131.050781 71.207031 C 131.050781 70.890625 131.410156 70.59375 132.128906 70.320312 C 132.746094 70.085938 133.476562 69.914062 134.316406 69.804688 C 134.335938 69.804688 134.367188 69.800781 134.410156 69.792969 C 134.472656 69.785156 134.511719 69.78125 134.53125 69.78125 L 134.59375 69.691406 C 132.539062 69.492188 131.511719 69.007812 131.511719 68.238281 C 131.511719 68.070312 131.566406 67.886719 131.667969 67.6875 C 131.851562 67.300781 132.292969 66.957031 132.992188 66.644531 C 133.710938 66.335938 134.542969 66.113281 135.488281 65.96875 C 136.597656 65.800781 137.914062 65.730469 139.433594 65.757812 L 142.605469 65.804688 L 146.335938 65.804688 L 146.214844 65.980469 Z M 135.859375 67.898438 C 135.753906 68.101562 135.703125 68.289062 135.703125 68.464844 C 135.703125 69.039062 136.1875 69.328125 137.152344 69.328125 C 138.488281 69.328125 139.433594 68.773438 139.988281 67.660156 C 140.089844 67.453125 140.140625 67.257812 140.140625 67.074219 C 140.140625 66.511719 139.679688 66.234375 138.753906 66.234375 C 137.359375 66.234375 136.390625 66.789062 135.859375 67.898438 Z M 135.859375 67.898438 "/>
<path style=" stroke:none;fill-rule:evenodd;fill: #C0C0C0;fill-opacity:1;" d="M 151.296875 68.324219 L 156.074219 68.324219 C 156.074219 68.292969 156.085938 68.246094 156.105469 68.1875 C 156.148438 68.121094 156.15625 68.070312 156.136719 68.039062 C 156.261719 67.753906 156.320312 67.5 156.320312 67.273438 C 156.320312 66.613281 155.828125 66.28125 154.84375 66.28125 C 153.363281 66.28125 152.183594 66.964844 151.296875 68.324219 Z M 159.867188 68.925781 L 150.988281 68.925781 C 150.929688 69.085938 150.855469 69.324219 150.773438 69.640625 C 150.734375 69.824219 150.804688 70.046875 150.988281 70.304688 C 151.175781 70.566406 151.402344 70.753906 151.667969 70.871094 C 152.265625 71.128906 153.117188 71.257812 154.226562 71.257812 C 155.542969 71.257812 156.835938 71.070312 158.109375 70.695312 L 158.417969 70.808594 L 157.402344 71.507812 C 155.921875 71.886719 154.359375 72.074219 152.714844 72.074219 C 150.148438 72.074219 148.320312 71.757812 147.230469 71.121094 C 146.632812 70.769531 146.335938 70.320312 146.335938 69.765625 C 146.335938 69.476562 146.417969 69.144531 146.582031 68.777344 C 147.015625 67.882812 147.992188 67.15625 149.511719 66.597656 C 151.03125 66.027344 152.890625 65.742188 155.089844 65.742188 C 158.5625 65.742188 160.296875 66.402344 160.296875 67.722656 C 160.296875 68.082031 160.152344 68.484375 159.867188 68.925781 Z M 159.867188 68.925781 "/>
<path style=" stroke:none;fill-rule:evenodd;fill: #C0C0C0;fill-opacity:1;" d="M 163.808594 66.15625 L 163.902344 65.90625 C 164.929688 65.941406 165.679688 65.957031 166.152344 65.957031 C 166.605469 65.957031 167.28125 65.941406 168.1875 65.90625 L 167.664062 66.820312 C 169.386719 66.121094 171.113281 65.769531 172.839844 65.769531 C 174.359375 65.769531 175.53125 66.003906 176.355469 66.472656 C 176.703125 66.671875 176.878906 66.925781 176.878906 67.234375 C 176.878906 67.425781 176.753906 67.78125 176.507812 68.300781 C 176.324219 68.636719 176.066406 69.144531 175.738281 69.828125 L 174.78125 71.910156 C 173.40625 71.867188 172.59375 71.847656 172.347656 71.847656 C 172.082031 71.847656 171.730469 71.855469 171.300781 71.871094 C 170.765625 71.898438 170.40625 71.910156 170.222656 71.910156 C 170.324219 71.761719 170.46875 71.542969 170.652344 71.257812 C 171.042969 70.664062 171.484375 69.867188 171.976562 68.863281 C 172.222656 68.347656 172.347656 67.976562 172.347656 67.75 C 172.347656 67.140625 171.710938 66.835938 170.4375 66.835938 C 169.203125 66.835938 168.269531 67.109375 167.632812 67.660156 C 167.324219 67.9375 167.003906 68.414062 166.675781 69.089844 C 166.429688 69.71875 166.03125 70.65625 165.476562 71.910156 C 165.269531 71.910156 164.917969 71.902344 164.425781 71.886719 C 163.933594 71.859375 163.554688 71.847656 163.285156 71.847656 C 163.019531 71.847656 162.648438 71.855469 162.175781 71.871094 C 161.621094 71.898438 161.242188 71.910156 161.035156 71.910156 C 161.140625 71.761719 161.273438 71.542969 161.4375 71.257812 C 161.785156 70.589844 162.300781 69.589844 162.980469 68.261719 C 163.144531 67.902344 163.421875 67.203125 163.808594 66.15625 Z M 163.808594 66.15625 "/>
<path style=" stroke:none;fill-rule:evenodd;fill: #C0C0C0;fill-opacity:1;" d="M 183.84375 68.324219 L 188.621094 68.324219 C 188.621094 68.292969 188.628906 68.246094 188.648438 68.1875 C 188.691406 68.121094 188.703125 68.070312 188.679688 68.039062 C 188.804688 67.753906 188.867188 67.5 188.867188 67.273438 C 188.867188 66.613281 188.371094 66.28125 187.386719 66.28125 C 185.90625 66.28125 184.726562 66.964844 183.84375 68.324219 Z M 192.410156 68.925781 L 183.535156 68.925781 C 183.472656 69.085938 183.402344 69.324219 183.320312 69.640625 C 183.277344 69.824219 183.347656 70.046875 183.535156 70.304688 C 183.71875 70.566406 183.945312 70.753906 184.210938 70.871094 C 184.808594 71.128906 185.660156 71.257812 186.769531 71.257812 C 188.085938 71.257812 189.378906 71.070312 190.652344 70.695312 L 190.960938 70.808594 L 189.945312 71.507812 C 188.464844 71.886719 186.902344 72.074219 185.261719 72.074219 C 182.691406 72.074219 180.863281 71.757812 179.773438 71.121094 C 179.179688 70.769531 178.878906 70.320312 178.878906 69.765625 C 178.878906 69.476562 178.964844 69.144531 179.128906 68.777344 C 179.558594 67.882812 180.535156 67.15625 182.054688 66.597656 C 183.574219 66.027344 185.433594 65.742188 187.632812 65.742188 C 191.105469 65.742188 192.839844 66.402344 192.839844 67.722656 C 192.839844 68.082031 192.699219 68.484375 192.410156 68.925781 Z M 192.410156 68.925781 "/>
<path style=" stroke:none;fill-rule:nonzero;fill: #C0C0C0;fill-opacity:1;" d="M 148.839844 76.195312 C 149.578125 76.164062 150.136719 76.035156 150.679688 75.824219 C 150.824219 75.929688 150.804688 76.058594 150.617188 76.15625 C 150.441406 76.246094 150.179688 76.328125 149.835938 76.386719 C 149.316406 76.484375 148.777344 76.53125 148.191406 76.53125 C 146.976562 76.53125 146.28125 76.3125 146.226562 75.878906 C 146.175781 75.441406 146.550781 75.015625 147.269531 74.699219 C 147.964844 74.359375 148.859375 74.175781 149.785156 74.175781 C 150.660156 74.175781 151.074219 74.328125 151.0625 74.617188 C 151.0625 74.90625 150.148438 75.273438 148.746094 75.476562 C 148.410156 75.523438 147.734375 75.644531 147.726562 75.753906 C 147.714844 75.855469 147.746094 75.945312 147.839844 76 C 148.070312 76.136719 148.441406 76.214844 148.839844 76.195312 Z M 147.933594 75.277344 C 147.933594 75.277344 147.890625 75.347656 147.828125 75.46875 C 148.007812 75.3125 148.316406 75.257812 148.703125 75.171875 C 149.367188 75.023438 149.554688 74.882812 149.660156 74.734375 C 149.765625 74.585938 149.640625 74.460938 149.265625 74.460938 C 148.703125 74.460938 148.234375 74.753906 147.933594 75.277344 Z M 171.667969 76.859375 C 171.667969 77.066406 171.0625 77.238281 170.003906 77.238281 C 169.671875 77.238281 169.347656 77.230469 169.347656 77.125 C 169.347656 77.074219 169.378906 77.054688 169.410156 77.023438 C 169.492188 77.03125 169.722656 77.050781 169.878906 77.050781 C 170.335938 77.050781 170.742188 77 170.742188 76.917969 C 170.742188 76.804688 170.542969 76.796875 170.199219 76.761719 C 170.167969 76.699219 170.222656 76.628906 170.324219 76.585938 C 170.378906 76.558594 170.441406 76.539062 170.511719 76.527344 C 169.441406 76.496094 168.894531 76.257812 168.894531 75.8125 C 168.894531 74.972656 170.515625 74.175781 172.441406 74.175781 C 173.335938 74.175781 173.75 74.265625 173.75 74.445312 C 173.75 74.605469 173.335938 74.730469 172.773438 74.804688 C 172.636719 74.558594 172.449219 74.472656 172.035156 74.472656 C 171.160156 74.472656 170.503906 74.933594 170.503906 75.699219 C 170.503906 75.957031 170.734375 76.179688 171.296875 76.179688 C 172.035156 76.179688 172.761719 76.03125 173.242188 75.800781 C 173.304688 75.847656 173.324219 75.894531 173.324219 75.945312 C 173.324219 76.300781 171.730469 76.519531 170.832031 76.527344 C 170.800781 76.554688 170.761719 76.59375 170.761719 76.609375 C 171.292969 76.648438 171.667969 76.71875 171.667969 76.859375 Z M 154.898438 74.394531 L 154.898438 74.417969 C 154.898438 74.617188 154.503906 74.757812 154.023438 74.757812 C 153.816406 74.757812 153.617188 74.753906 153.429688 74.753906 C 153.347656 74.753906 153.273438 74.753906 153.191406 74.761719 C 153.085938 74.964844 152.960938 75.191406 152.816406 75.417969 C 152.734375 75.542969 152.652344 75.730469 152.652344 75.871094 C 152.671875 76 152.808594 76.074219 153.054688 76.074219 C 153.179688 76.074219 153.398438 75.992188 153.585938 75.910156 C 153.917969 75.769531 154.117188 75.695312 154.222656 75.695312 C 154.261719 75.695312 154.273438 75.707031 154.273438 75.734375 C 154.273438 76.039062 153.179688 76.503906 152.433594 76.503906 C 151.570312 76.503906 151.226562 76.292969 151.226562 75.953125 C 151.226562 75.871094 151.257812 75.78125 151.289062 75.691406 C 151.390625 75.441406 151.421875 75.371094 151.632812 75.019531 C 151.859375 74.664062 152.097656 74.226562 152.097656 73.984375 C 152.097656 73.902344 152.078125 73.835938 151.984375 73.75 C 152.421875 73.648438 152.777344 73.609375 153.109375 73.609375 C 153.441406 73.609375 153.617188 73.691406 153.617188 73.816406 C 153.617188 73.804688 153.566406 74.007812 153.367188 74.421875 L 153.910156 74.421875 C 154.222656 74.421875 154.542969 74.414062 154.898438 74.394531 Z M 157.746094 74.378906 C 157.328125 74.378906 157.140625 74.476562 157.140625 74.640625 C 157.140625 74.726562 157.246094 74.804688 157.414062 74.886719 C 157.859375 75.109375 158.316406 75.308594 158.316406 75.617188 C 158.316406 76.125 157.171875 76.515625 155.914062 76.515625 C 155.195312 76.515625 154.375 76.328125 154.375 75.996094 C 154.375 75.851562 154.605469 75.761719 154.792969 75.722656 C 155.03125 75.984375 155.4375 76.214844 156.058594 76.230469 C 156.550781 76.230469 156.859375 76.117188 156.859375 75.890625 C 156.859375 75.691406 156.425781 75.550781 156.027344 75.371094 C 155.757812 75.238281 155.613281 75.074219 155.613281 74.910156 C 155.613281 74.363281 156.964844 74.125 158.160156 74.125 C 158.535156 74.125 158.691406 74.15625 158.753906 74.253906 C 158.753906 74.339844 158.660156 74.414062 158.347656 74.503906 C 158.140625 74.417969 157.933594 74.378906 157.746094 74.378906 Z M 161.113281 75.921875 C 161.574219 75.71875 161.800781 75.660156 161.800781 75.746094 C 161.800781 75.789062 161.75 75.863281 161.636719 75.976562 C 161.34375 76.25 160.5 76.511719 159.960938 76.511719 C 159.410156 76.511719 159.074219 76.386719 159.035156 76.125 C 159.015625 76.03125 159.035156 75.757812 159.242188 75.441406 C 159.417969 75.1875 159.511719 74.9375 159.585938 74.78125 C 159.628906 74.699219 159.636719 74.617188 159.636719 74.554688 C 159.636719 74.472656 159.585938 74.40625 159.480469 74.34375 C 159.847656 74.289062 160.199219 74.253906 160.523438 74.253906 C 160.699219 74.253906 160.917969 74.265625 161.042969 74.320312 C 161.167969 74.375 161.207031 74.449219 161.167969 74.539062 C 161.136719 74.609375 161.105469 74.675781 161.050781 74.753906 C 160.898438 74.988281 160.710938 75.257812 160.648438 75.375 C 160.5625 75.523438 160.492188 75.761719 160.492188 75.886719 C 160.492188 75.972656 160.554688 76.03125 160.605469 76.066406 C 160.710938 76.058594 160.90625 76 161.113281 75.921875 Z M 175.789062 75.921875 C 176.246094 75.71875 176.476562 75.660156 176.476562 75.746094 C 176.476562 75.789062 176.421875 75.863281 176.308594 75.976562 C 176.019531 76.25 175.175781 76.511719 174.632812 76.511719 C 174.082031 76.511719 173.75 76.386719 173.707031 76.125 C 173.6875 76.03125 173.707031 75.757812 173.917969 75.441406 C 174.09375 75.1875 174.1875 74.9375 174.261719 74.78125 C 174.300781 74.699219 174.3125 74.617188 174.3125 74.554688 C 174.3125 74.472656 174.261719 74.40625 174.15625 74.34375 C 174.519531 74.289062 174.875 74.253906 175.195312 74.253906 C 175.375 74.253906 175.589844 74.265625 175.714844 74.320312 C 175.839844 74.375 175.882812 74.449219 175.839844 74.539062 C 175.808594 74.609375 175.777344 74.675781 175.726562 74.753906 C 175.570312 74.988281 175.382812 75.257812 175.320312 75.375 C 175.238281 75.523438 175.164062 75.761719 175.164062 75.886719 C 175.164062 75.972656 175.226562 76.03125 175.28125 76.066406 C 175.382812 76.058594 175.582031 76 175.789062 75.921875 Z M 187.113281 73.355469 L 187.175781 73.355469 C 187.488281 73.355469 187.6875 73.433594 187.6875 73.566406 C 187.6875 73.546875 187.375 74.382812 186.832031 75.257812 C 188.082031 74.554688 189.007812 74.199219 189.640625 74.199219 C 189.996094 74.199219 190.183594 74.339844 190.234375 74.613281 C 189.640625 74.613281 188.964844 74.765625 188.113281 75.164062 C 188.113281 75.175781 188.101562 75.191406 188.101562 75.210938 C 188.101562 75.246094 188.125 75.289062 188.15625 75.332031 C 188.40625 75.640625 188.757812 76.003906 189.496094 76.003906 C 189.757812 76.003906 190.046875 75.960938 190.390625 75.875 C 190.410156 75.871094 190.421875 75.863281 190.433594 75.863281 C 190.441406 75.863281 190.453125 75.875 190.453125 75.882812 C 190.453125 75.894531 190.441406 75.902344 190.433594 75.910156 C 190.152344 76.203125 189.351562 76.492188 188.707031 76.492188 C 188.09375 76.492188 187.59375 76.242188 187.019531 75.566406 C 186.761719 75.757812 186.59375 75.9375 186.25 76.277344 C 186.105469 76.429688 185.917969 76.503906 185.386719 76.503906 C 185.179688 76.503906 184.917969 76.492188 184.585938 76.46875 C 185.378906 75.628906 185.867188 74.6875 186.167969 73.730469 C 186.167969 73.710938 186.179688 73.699219 186.179688 73.6875 C 186.179688 73.617188 186.136719 73.5625 186.054688 73.492188 C 186.460938 73.398438 186.792969 73.363281 187.113281 73.355469 Z M 191.589844 74.652344 C 192.234375 74.359375 193.046875 74.175781 193.953125 74.175781 C 195.085938 74.175781 195.855469 74.460938 195.855469 74.929688 C 195.855469 75.726562 194.335938 76.53125 192.484375 76.53125 C 191.339844 76.53125 190.582031 76.234375 190.582031 75.742188 C 190.582031 75.332031 190.933594 74.964844 191.589844 74.652344 Z M 194.304688 74.929688 C 194.304688 74.679688 194.140625 74.488281 193.640625 74.488281 C 192.714844 74.488281 192.109375 75.300781 192.109375 75.789062 C 192.109375 76.039062 192.296875 76.21875 192.796875 76.21875 C 193.710938 76.21875 194.304688 75.417969 194.304688 74.929688 Z M 195.019531 77.046875 C 195.539062 76.871094 195.902344 76.625 196.027344 76.355469 C 196.109375 76.179688 196.695312 74.941406 196.789062 74.777344 L 196.570312 74.777344 C 196.339844 74.777344 195.996094 74.75 195.996094 74.6875 C 195.996094 74.679688 196.007812 74.675781 196.007812 74.671875 C 196.171875 74.476562 196.277344 74.441406 196.972656 74.441406 C 197.015625 74.367188 197.058594 74.296875 197.097656 74.226562 C 197.472656 73.605469 198.835938 73.273438 200.34375 73.273438 C 200.90625 73.273438 201.332031 73.3125 201.332031 73.503906 C 201.332031 73.597656 201.0625 73.710938 200.542969 73.8125 C 200.355469 73.652344 200.085938 73.570312 199.75 73.570312 C 199.492188 73.570312 199.148438 73.660156 198.992188 73.753906 C 198.792969 73.871094 198.609375 74.097656 198.441406 74.441406 L 198.824219 74.441406 C 199.230469 74.441406 199.667969 74.410156 200.03125 74.410156 C 200.042969 74.425781 200.042969 74.445312 200.042969 74.460938 C 200.042969 74.71875 199.386719 74.773438 198.816406 74.773438 C 198.628906 74.773438 198.441406 74.769531 198.253906 74.769531 C 197.992188 75.234375 197.816406 75.726562 197.359375 76.261719 C 197.003906 76.675781 196.214844 77.011719 195.195312 77.167969 C 195.152344 77.171875 195.121094 77.175781 195.089844 77.175781 C 194.945312 77.175781 194.90625 77.148438 194.90625 77.113281 C 194.914062 77.082031 194.957031 77.074219 195.019531 77.046875 Z M 204.175781 74.394531 L 204.175781 74.417969 C 204.175781 74.617188 203.78125 74.757812 203.304688 74.757812 C 203.09375 74.757812 202.898438 74.753906 202.710938 74.753906 C 202.628906 74.753906 202.554688 74.753906 202.472656 74.761719 C 202.367188 74.964844 202.242188 75.191406 202.097656 75.417969 C 202.011719 75.542969 201.929688 75.730469 201.929688 75.871094 C 201.949219 76 202.085938 76.074219 202.335938 76.074219 C 202.460938 76.074219 202.679688 75.992188 202.867188 75.910156 C 203.199219 75.769531 203.398438 75.695312 203.5 75.695312 C 203.542969 75.695312 203.554688 75.707031 203.554688 75.734375 C 203.554688 76.039062 202.460938 76.503906 201.710938 76.503906 C 200.847656 76.503906 200.503906 76.292969 200.503906 75.953125 C 200.503906 75.871094 200.535156 75.78125 200.566406 75.691406 C 200.671875 75.441406 200.703125 75.371094 200.910156 75.019531 C 201.140625 74.664062 201.378906 74.226562 201.378906 73.984375 C 201.378906 73.902344 201.359375 73.835938 201.265625 73.75 C 201.703125 73.648438 202.054688 73.609375 202.386719 73.609375 C 202.722656 73.609375 202.898438 73.691406 202.898438 73.816406 C 202.898438 73.804688 202.847656 74.007812 202.648438 74.421875 L 203.1875 74.421875 C 203.5 74.421875 203.824219 74.414062 204.175781 74.394531 Z M 206.433594 76.195312 C 207.171875 76.164062 207.734375 76.035156 208.273438 75.824219 C 208.421875 75.929688 208.398438 76.058594 208.210938 76.15625 C 208.035156 76.246094 207.777344 76.328125 207.433594 76.386719 C 206.914062 76.484375 206.371094 76.53125 205.789062 76.53125 C 204.570312 76.53125 203.875 76.3125 203.824219 75.878906 C 203.769531 75.441406 204.144531 75.015625 204.863281 74.699219 C 205.558594 74.359375 206.453125 74.175781 207.378906 74.175781 C 208.253906 74.175781 208.671875 74.328125 208.660156 74.617188 C 208.660156 74.90625 207.746094 75.273438 206.339844 75.476562 C 206.007812 75.523438 205.332031 75.644531 205.320312 75.753906 C 205.308594 75.855469 205.339844 75.945312 205.433594 76 C 205.664062 76.136719 206.039062 76.214844 206.433594 76.195312 Z M 205.527344 75.277344 C 205.527344 75.277344 205.488281 75.347656 205.425781 75.46875 C 205.601562 75.3125 205.914062 75.257812 206.296875 75.171875 C 206.964844 75.023438 207.152344 74.882812 207.253906 74.734375 C 207.359375 74.585938 207.234375 74.460938 206.859375 74.460938 C 206.296875 74.460938 205.832031 74.753906 205.527344 75.277344 Z M 161.632812 76.535156 C 161.601562 76.488281 161.574219 76.4375 161.574219 76.386719 C 161.574219 76.257812 161.699219 76.125 161.914062 76.027344 C 162.550781 75.742188 163.613281 75.285156 164.683594 74.722656 C 164.164062 74.738281 163.910156 74.726562 163.683594 74.726562 C 162.984375 74.726562 162.582031 74.605469 162.582031 74.488281 C 162.582031 74.394531 162.820312 74.265625 163.058594 74.136719 C 163.402344 74.222656 163.996094 74.265625 164.816406 74.265625 C 165.566406 74.265625 166.035156 74.238281 166.660156 74.1875 C 166.679688 74.222656 166.691406 74.257812 166.691406 74.292969 C 166.691406 74.390625 166.605469 74.488281 166.441406 74.570312 C 166.210938 74.679688 165.445312 75.082031 164.75 75.394531 C 164.433594 75.535156 164.125 75.644531 163.828125 75.765625 L 163.746094 75.796875 C 163.621094 75.851562 163.417969 75.953125 163.566406 75.992188 C 163.832031 76.003906 164.101562 76.03125 164.34375 76.058594 C 164.855469 76.117188 165.460938 76.113281 165.824219 76.066406 C 166.09375 76.03125 166.292969 75.972656 166.433594 75.871094 C 166.507812 75.910156 166.5625 75.949219 166.597656 75.992188 C 166.804688 76.238281 166.445312 76.488281 165.839844 76.566406 C 165.09375 76.660156 164.164062 76.425781 163.355469 76.394531 C 162.953125 76.382812 162.542969 76.398438 162.160156 76.445312 C 161.972656 76.46875 161.800781 76.503906 161.632812 76.535156 Z M 160.1875 73.558594 C 160.464844 73.425781 160.90625 73.402344 161.175781 73.507812 C 161.445312 73.617188 161.4375 73.8125 161.160156 73.945312 C 160.882812 74.082031 160.441406 74.105469 160.175781 74 C 159.90625 73.890625 159.910156 73.695312 160.1875 73.558594 Z M 174.800781 73.558594 C 175.078125 73.425781 175.519531 73.402344 175.789062 73.507812 C 176.058594 73.617188 176.050781 73.8125 175.773438 73.945312 C 175.496094 74.082031 175.054688 74.105469 174.789062 74 C 174.519531 73.890625 174.523438 73.695312 174.800781 73.558594 Z M 192.785156 73.558594 C 193.0625 73.425781 193.503906 73.402344 193.773438 73.507812 C 194.039062 73.617188 194.035156 73.8125 193.757812 73.945312 C 193.480469 74.082031 193.039062 74.105469 192.769531 74 C 192.503906 73.890625 192.507812 73.695312 192.785156 73.558594 Z M 194.570312 73.558594 C 194.84375 73.425781 195.285156 73.402344 195.554688 73.507812 C 195.824219 73.617188 195.816406 73.8125 195.539062 73.945312 C 195.265625 74.082031 194.824219 74.105469 194.554688 74 C 194.285156 73.890625 194.292969 73.695312 194.570312 73.558594 Z M 179.699219 73.503906 C 179.90625 73.609375 180.210938 73.675781 180.546875 73.675781 C 180.796875 73.675781 180.996094 73.636719 181.152344 73.566406 C 181.183594 73.550781 181.21875 73.53125 181.253906 73.507812 L 181.292969 73.496094 L 181.339844 73.484375 C 181.378906 73.480469 181.433594 73.472656 181.488281 73.464844 C 181.597656 73.449219 181.746094 73.433594 181.867188 73.433594 C 181.917969 73.4375 181.96875 73.4375 182.011719 73.4375 C 182.058594 73.4375 182.105469 73.441406 182.148438 73.445312 C 182.242188 73.453125 182.328125 73.46875 182.417969 73.496094 C 182.484375 73.519531 182.453125 73.554688 182.433594 73.570312 C 182.40625 73.585938 182.363281 73.605469 182.308594 73.625 C 182.203125 73.667969 182.039062 73.714844 181.851562 73.757812 C 181.472656 73.847656 180.96875 73.929688 180.554688 73.929688 C 179.75 73.929688 178.847656 73.789062 178.847656 73.589844 C 178.847656 73.5625 178.863281 73.535156 178.890625 73.511719 C 178.957031 73.449219 179.042969 73.441406 179.25 73.441406 C 179.570312 73.4375 179.683594 73.496094 179.699219 73.503906 Z M 178.585938 77.285156 C 178.699219 77.226562 178.820312 77.136719 178.941406 77.023438 C 178.472656 76.953125 177.867188 76.910156 177.316406 76.890625 C 176.921875 76.878906 176.320312 76.851562 176.296875 76.996094 C 176.292969 77.015625 176.300781 77.03125 176.320312 77.046875 C 176.59375 77.285156 177.070312 77.445312 177.617188 77.460938 C 178.003906 77.472656 178.324219 77.414062 178.585938 77.285156 Z M 181.488281 75.632812 C 181.296875 75.96875 181.125 76.183594 180.984375 76.398438 C 180.804688 76.679688 180.613281 76.878906 180.445312 77.027344 C 180.675781 77.082031 181.003906 77.179688 181.246094 77.28125 C 181.53125 77.390625 181.617188 77.449219 181.613281 77.464844 C 181.5625 77.464844 181.394531 77.394531 181.15625 77.324219 C 181.167969 77.328125 180.609375 77.171875 180.324219 77.117188 C 179.722656 77.554688 178.746094 77.78125 177.59375 77.746094 C 176.433594 77.710938 175.332031 77.417969 175.378906 77.136719 C 175.414062 76.917969 175.851562 76.613281 177.5 76.660156 C 178.082031 76.679688 178.71875 76.730469 179.21875 76.800781 C 179.449219 76.535156 179.710938 76.246094 180.003906 75.738281 C 180.027344 75.675781 180.074219 75.609375 180.109375 75.539062 C 179.214844 76.054688 178.359375 76.25 177.652344 76.25 C 176.90625 76.25 176.625 76 176.625 75.664062 C 176.625 74.902344 178.019531 74.121094 179.828125 74.121094 C 180.222656 74.121094 180.597656 74.160156 180.929688 74.238281 C 181.128906 74.171875 181.386719 74.132812 181.648438 74.132812 C 181.90625 74.132812 182.179688 74.164062 182.480469 74.226562 C 182.210938 74.390625 182.023438 74.628906 181.753906 75.105469 C 181.664062 75.289062 181.574219 75.46875 181.488281 75.632812 Z M 178.316406 75.859375 C 178.949219 75.859375 179.9375 75.277344 180.492188 74.722656 C 180.449219 74.613281 179.980469 74.5 179.597656 74.5 C 178.710938 74.5 177.992188 75.09375 177.992188 75.675781 C 177.992188 75.796875 178.128906 75.859375 178.316406 75.859375 Z M 178.316406 75.859375 "/>
</g>
</svg>
