<?xml version="1.0" encoding="UTF-8"?>
<svg xmlns="http://www.w3.org/2000/svg" xmlns:xlink="http://www.w3.org/1999/xlink" width="266pt" height="140pt" viewBox="0 0 266 140" version="1.1">
<defs>
<clipPath id="clip1">
  <path d="M 19.683594 89 L 64 89 L 64 126 L 19.683594 126 Z M 19.683594 89 "/>
</clipPath>
</defs>
<g id="surface1">
<path style=" stroke:none;fill-rule:nonzero;fill:rgb(0%,0%,0%);fill-opacity:1;" d="M 233 120.882812 C 233.71875 120.882812 238.925781 121.085938 238.882812 111.511719 C 238.847656 102.625 233.78125 102.890625 232.953125 102.890625 L 232.96875 102.890625 C 232.140625 102.890625 227.078125 102.625 227.035156 111.511719 C 226.988281 121.085938 232.195312 120.882812 232.90625 120.882812 Z M 233.023438 124.144531 C 231.296875 124.167969 220.023438 123.808594 220.023438 111.960938 C 220.070312 100.15625 231.230469 99.996094 232.953125 100.003906 C 234.691406 99.996094 245.839844 100.15625 245.863281 111.960938 C 245.894531 123.808594 234.609375 124.167969 232.886719 124.144531 "/>
<path style=" stroke:none;fill-rule:nonzero;fill:rgb(0%,0%,0%);fill-opacity:1;" d="M 216.800781 101.339844 L 216.800781 104.277344 C 215.488281 103.761719 214.738281 103.382812 213.34375 103.035156 C 212.25 102.8125 207.558594 101.789062 205.300781 103.964844 C 204.359375 104.84375 204.074219 106.460938 205.964844 107.71875 C 208.621094 109.304688 212.421875 110.039062 215.542969 112.386719 C 217.59375 113.878906 218.253906 115.632812 217.734375 118.316406 C 217.199219 121.042969 213.96875 123.242188 211.070312 123.804688 C 206.847656 124.585938 202.105469 124.21875 198.339844 122.753906 L 198.367188 119.859375 C 201.820312 121.191406 207.195312 122.890625 210.53125 120.191406 C 211.453125 119.414062 212.007812 118.316406 211.527344 117.175781 C 210.777344 115.082031 204.578125 113.832031 200.796875 111.238281 C 197.042969 109.113281 197.386719 105.46875 198.695312 103.460938 C 202.230469 98.578125 211.191406 99.925781 216.800781 101.339844 "/>
<path style=" stroke:none;fill-rule:nonzero;fill:rgb(0%,0%,0%);fill-opacity:1;" d="M 195.152344 101.339844 L 195.152344 104.277344 C 193.832031 103.761719 193.085938 103.382812 191.695312 103.035156 C 190.609375 102.8125 185.898438 101.789062 183.660156 103.964844 C 182.703125 104.84375 182.417969 106.460938 184.289062 107.71875 C 186.96875 109.304688 190.761719 110.039062 193.894531 112.386719 C 195.9375 113.878906 196.59375 115.632812 196.070312 118.316406 C 195.546875 121.042969 192.300781 123.242188 189.414062 123.804688 C 185.195312 124.585938 180.449219 124.21875 176.695312 122.753906 L 176.710938 119.859375 C 180.171875 121.191406 185.542969 122.890625 188.890625 120.191406 C 189.78125 119.414062 190.347656 118.316406 189.878906 117.175781 C 189.105469 115.082031 182.917969 113.832031 179.144531 111.238281 C 175.394531 109.113281 175.730469 105.46875 177.035156 103.460938 C 180.570312 98.578125 189.535156 99.925781 195.152344 101.339844 "/>
<path style=" stroke:none;fill-rule:nonzero;fill:rgb(0%,0%,0%);fill-opacity:1;" d="M 106.449219 101.339844 L 106.449219 104.277344 C 105.117188 103.761719 104.382812 103.382812 102.980469 103.035156 C 101.886719 102.8125 97.195312 101.789062 94.957031 103.964844 C 93.996094 104.84375 93.714844 106.460938 95.601562 107.71875 C 98.253906 109.304688 102.066406 110.039062 105.1875 112.386719 C 107.234375 113.878906 107.890625 115.632812 107.371094 118.316406 C 106.847656 121.042969 103.597656 123.242188 100.714844 123.804688 C 96.5 124.585938 91.742188 124.21875 87.984375 122.753906 L 88 119.859375 C 91.46875 121.191406 96.839844 122.890625 100.183594 120.191406 C 101.089844 119.414062 101.648438 118.316406 101.160156 117.175781 C 100.410156 115.082031 94.222656 113.832031 90.4375 111.238281 C 86.6875 109.113281 87.035156 105.46875 88.324219 103.460938 C 91.867188 98.578125 100.839844 99.925781 106.449219 101.339844 "/>
<path style=" stroke:none;fill-rule:nonzero;fill:rgb(0%,0%,0%);fill-opacity:1;" d="M 74.503906 121.386719 C 77.921875 121.699219 82.101562 121.21875 85.433594 121.136719 L 85.449219 123.75 L 67.351562 123.75 C 67.351562 123.75 67.917969 123.210938 67.917969 122.300781 L 67.917969 101.816406 C 67.917969 100.914062 67.351562 100.351562 67.351562 100.351562 L 85.449219 100.351562 L 85.433594 102.96875 C 82.101562 102.914062 77.921875 102.414062 74.503906 102.738281 C 74.503906 102.738281 74.5 109.96875 74.5 110.464844 C 77.304688 110.621094 80.601562 110.648438 83.222656 110.34375 L 83.222656 113.117188 C 80.648438 112.894531 77.277344 112.851562 74.5 112.988281 L 74.503906 113.878906 "/>
<path style=" stroke:none;fill-rule:nonzero;fill:rgb(0%,0%,0%);fill-opacity:1;" d="M 163.3125 121.386719 C 166.730469 121.699219 170.898438 121.21875 174.246094 121.136719 L 174.253906 123.75 L 156.179688 123.75 C 156.179688 123.75 156.734375 123.210938 156.734375 122.300781 L 156.734375 101.816406 C 156.734375 100.914062 156.179688 100.351562 156.179688 100.351562 L 174.253906 100.351562 L 174.246094 102.96875 C 170.898438 102.914062 166.730469 102.414062 163.3125 102.738281 C 163.3125 102.738281 163.300781 109.96875 163.300781 110.464844 C 166.109375 110.621094 169.410156 110.648438 172.046875 110.34375 L 172.046875 113.117188 C 169.464844 112.894531 166.085938 112.851562 163.3125 112.988281 L 163.3125 113.878906 "/>
<path style=" stroke:none;fill-rule:nonzero;fill:rgb(0%,0%,0%);fill-opacity:1;" d="M 138.695312 103.300781 L 138.695312 111.199219 C 140.875 111.199219 143.519531 111.464844 145.035156 109.847656 C 146.324219 108.269531 146.101562 106.234375 145.25 104.785156 C 143.734375 102.433594 138.695312 103.300781 138.695312 103.300781 M 138.734375 114.089844 L 138.734375 122.300781 C 138.742188 123.203125 139.300781 123.765625 139.300781 123.765625 L 131.574219 123.75 C 131.574219 123.75 132.128906 123.210938 132.136719 122.300781 L 132.128906 101.816406 C 132.128906 100.914062 131.574219 100.351562 131.574219 100.351562 L 144.753906 100.351562 C 148.335938 100.492188 152.128906 102.316406 152.238281 106.285156 C 152.277344 109.523438 150.722656 111.398438 148.378906 112.429688 C 147.933594 112.625 147.964844 112.578125 147.8125 112.671875 C 149.472656 116.238281 150.980469 118.863281 152.980469 122.300781 C 153.390625 123.203125 154.199219 123.75 154.199219 123.75 L 146.214844 123.75 C 146.214844 123.75 146.695312 123.203125 146.203125 122.300781 C 146.203125 122.300781 143.367188 116.136719 142.035156 114.089844 "/>
<path style=" stroke:none;fill-rule:nonzero;fill:rgb(0%,0%,0%);fill-opacity:1;" d="M 117.023438 103.332031 L 117 112.121094 C 119.207031 112.257812 121.828125 112.484375 123.335938 110.859375 C 124.628906 109.285156 124.417969 106.234375 123.550781 104.8125 C 122.039062 102.441406 117.023438 103.332031 117.023438 103.332031 M 117.050781 122.300781 C 117.050781 123.203125 117.613281 123.761719 117.613281 123.761719 L 109.890625 123.75 C 109.890625 123.75 110.460938 123.210938 110.460938 122.300781 L 110.460938 101.816406 C 110.460938 100.914062 109.890625 100.351562 109.890625 100.351562 L 122.65625 100.351562 C 125.859375 100.457031 128.351562 101.816406 129.402344 104.679688 C 130.199219 107.191406 130.097656 110.445312 128.15625 112.484375 C 125.570312 115.648438 117.035156 115.183594 117.035156 115.183594 "/>
<g clip-path="url(#clip1)" clip-rule="nonzero">
<path style=" stroke:none;fill-rule:nonzero;fill:rgb(0%,0%,0%);fill-opacity:1;" d="M 58.882812 100.351562 C 58.882812 100.351562 59.460938 100.949219 59.460938 101.804688 L 59.460938 112.164062 C 56.105469 108.5 53.132812 104.363281 49.671875 100.632812 C 48.386719 99.203125 45.945312 96.804688 45.011719 96.074219 C 38.945312 90.59375 28.96875 88.082031 19.683594 91.101562 L 19.683594 91.449219 C 22.863281 90.8125 26.992188 91.039062 31.042969 92.546875 C 34.085938 93.578125 38.414062 96.699219 40.921875 99.554688 C 44.160156 102.960938 51.0625 111.714844 51.0625 111.714844 C 55.027344 116.464844 58.523438 120.78125 62.570312 125.28125 L 62.570312 101.804688 C 62.582031 100.949219 63.148438 100.351562 63.148438 100.351562 "/>
</g>
<path style=" stroke:none;fill-rule:nonzero;fill:rgb(0%,0%,0%);fill-opacity:1;" d="M 40.847656 123.78125 C 40.847656 123.78125 40.273438 123.191406 40.273438 122.328125 L 40.273438 111.960938 C 43.621094 115.628906 46.605469 119.773438 50.066406 123.5 C 51.351562 124.925781 53.777344 127.328125 54.722656 128.066406 C 60.792969 133.542969 70.753906 136.058594 80.050781 133.027344 L 80.050781 132.683594 C 76.867188 133.3125 72.738281 133.097656 68.6875 131.574219 C 65.652344 130.546875 61.316406 127.4375 58.816406 124.578125 C 55.570312 121.167969 48.671875 112.417969 48.671875 112.417969 C 44.703125 107.667969 41.203125 103.339844 37.152344 98.859375 L 37.152344 122.328125 C 37.152344 123.191406 36.574219 123.78125 36.574219 123.78125 "/>
<path style=" stroke:none;fill-rule:nonzero;fill:rgb(0%,0%,0%);fill-opacity:1;" d="M 171.679688 62.582031 C 162.382812 65.609375 152.414062 63.097656 146.347656 57.617188 C 145.40625 56.886719 142.972656 54.480469 141.6875 53.050781 C 138.234375 49.324219 135.25 45.179688 131.898438 41.515625 L 131.898438 51.882812 C 131.898438 52.746094 132.476562 53.339844 132.476562 53.339844 L 128.203125 53.339844 C 128.203125 53.339844 128.773438 52.746094 128.78125 51.882812 L 128.78125 28.410156 C 132.832031 32.898438 136.324219 37.226562 140.292969 41.96875 C 140.292969 41.96875 147.195312 50.722656 150.4375 54.136719 C 152.945312 56.988281 157.277344 60.097656 160.316406 61.128906 C 164.363281 62.652344 168.496094 62.863281 171.679688 62.234375 Z M 111.308594 21.003906 L 111.308594 20.65625 C 120.59375 17.632812 130.566406 20.148438 136.632812 25.632812 C 137.574219 26.355469 140.011719 28.753906 141.296875 30.1875 C 144.753906 33.917969 147.726562 38.054688 151.089844 41.722656 L 151.089844 31.355469 C 151.089844 30.5 150.507812 29.90625 150.507812 29.90625 L 154.769531 29.90625 C 154.769531 29.90625 154.207031 30.5 154.191406 31.355469 L 154.191406 54.832031 C 150.144531 50.339844 146.652344 46.015625 142.691406 41.273438 C 142.691406 41.273438 135.785156 32.511719 132.542969 29.109375 C 130.042969 26.25 125.707031 23.136719 122.671875 22.105469 C 118.613281 20.59375 114.492188 20.371094 111.308594 21.003906 M 103.777344 76.582031 L 179.210938 76.582031 L 179.210938 7.011719 L 103.777344 7.011719 Z M 103.777344 76.582031 "/>
</g>
</svg>
