<?xml version="1.0" encoding="UTF-8"?>
<svg xmlns="http://www.w3.org/2000/svg" xmlns:xlink="http://www.w3.org/1999/xlink" width="266pt" height="140pt" viewBox="0 0 266 140" version="1.1">
<g id="surface1">
<path style=" stroke:none;fill-rule:nonzero;fill:rgb(0%,42.745098%,71.372549%);fill-opacity:1;" d="M 230.75 51.167969 C 233.972656 49.0625 239.320312 48.164062 244.296875 48.871094 L 246.292969 46.980469 C 238.296875 45.585938 229.363281 47.453125 225.527344 51.554688 L 240.867188 55.527344 L 230.75 51.167969 "/>
<path style=" stroke:none;fill-rule:nonzero;fill:rgb(0%,42.745098%,71.372549%);fill-opacity:1;" d="M 235.359375 61.582031 C 231.363281 59.886719 229.648438 57.074219 230.996094 54.453125 L 227.40625 53.402344 C 224.753906 57.609375 228.304688 62.3125 236.09375 64.332031 L 243.644531 56.257812 L 235.359375 61.582031 "/>
<path style=" stroke:none;fill-rule:nonzero;fill:rgb(0%,42.745098%,71.372549%);fill-opacity:1;" d="M 255.105469 59.15625 C 251.882812 61.261719 246.539062 62.164062 241.5625 61.453125 L 239.5625 63.34375 C 247.558594 64.738281 256.496094 62.871094 260.328125 58.769531 L 244.988281 54.796875 L 255.105469 59.15625 "/>
<path style=" stroke:none;fill-rule:nonzero;fill:rgb(0%,42.745098%,71.372549%);fill-opacity:1;" d="M 250.539062 48.765625 C 254.535156 50.480469 256.25 53.273438 254.902344 55.894531 L 258.492188 56.945312 C 261.144531 52.734375 257.597656 48.035156 249.804688 46.015625 L 242.253906 54.109375 L 250.539062 48.765625 "/>
<path style=" stroke:none;fill-rule:nonzero;fill:rgb(0%,42.745098%,71.372549%);fill-opacity:1;" d="M 191.21875 86.855469 L 184.199219 94.371094 L 189.628906 94.371094 L 194.15625 89.5625 C 194.398438 89.324219 194.726562 89.089844 195.542969 89.089844 L 199.746094 89.089844 L 201.785156 86.855469 L 197.992188 86.855469 C 196.195312 86.855469 195.5 87.265625 195.5 87.265625 L 195.949219 86.769531 L 191.21875 86.855469 "/>
<path style=" stroke:none;fill-rule:nonzero;fill:rgb(0%,42.745098%,71.372549%);fill-opacity:1;" d="M 137.445312 94.328125 L 145.933594 84.921875 L 151.074219 84.921875 L 142.628906 94.328125 "/>
<path style=" stroke:none;fill-rule:nonzero;fill:rgb(0%,42.745098%,71.372549%);fill-opacity:1;" d="M 203.945312 86.082031 L 205.621094 84.472656 L 210.761719 84.472656 L 209.167969 86.082031 "/>
<path style=" stroke:none;fill-rule:nonzero;fill:rgb(0%,42.745098%,71.372549%);fill-opacity:1;" d="M 196.441406 94.371094 L 203.5 86.769531 L 208.679688 86.769531 L 201.824219 94.371094 "/>
<path style=" stroke:none;fill-rule:nonzero;fill:rgb(0%,42.745098%,71.372549%);fill-opacity:1;" d="M 221.367188 88.207031 L 215.125 88.207031 C 214.675781 88.207031 214.59375 88.292969 214.472656 88.402344 L 210.679688 92.609375 C 210.515625 92.804688 210.679688 92.933594 211.085938 92.933594 L 217.777344 92.933594 L 216.472656 94.371094 L 206.84375 94.371094 C 205.863281 94.371094 204.601562 93.835938 205.496094 92.761719 L 210.105469 87.714844 C 210.839844 86.921875 212.351562 86.8125 213.167969 86.8125 C 213.820312 86.8125 220.511719 86.8125 222.671875 86.8125 L 221.367188 88.207031 "/>
<path style=" stroke:none;fill-rule:nonzero;fill:rgb(0%,42.745098%,71.372549%);fill-opacity:1;" d="M 186.402344 86.835938 L 187.792969 85.289062 L 182.078125 85.289062 L 180.609375 86.8125 C 180.609375 86.8125 169.59375 86.8125 168.941406 86.8125 C 168.125 86.8125 166.65625 86.921875 165.882812 87.714844 L 161.3125 92.761719 C 160.414062 93.8125 161.679688 94.371094 162.660156 94.371094 L 172.328125 94.371094 L 173.632812 92.933594 L 166.984375 92.933594 C 166.578125 92.933594 166.414062 92.804688 166.578125 92.609375 L 170.371094 88.402344 C 170.453125 88.292969 170.574219 88.207031 171.023438 88.207031 L 179.589844 88.207031 C 179.589844 88.207031 175.960938 92.289062 175.550781 92.78125 C 174.898438 93.554688 175.59375 94.371094 176.570312 94.371094 C 176.980469 94.371094 181.34375 94.371094 181.628906 94.371094 C 182.285156 94.371094 182.488281 94.265625 182.773438 94.070312 C 183.097656 93.835938 183.792969 92.910156 183.792969 92.910156 L 181.957031 92.910156 C 181.222656 92.910156 181.101562 92.78125 181.46875 92.351562 C 181.710938 92.03125 185.261719 88.207031 185.261719 88.207031 L 187.425781 88.207031 L 188.730469 86.8125 L 186.402344 86.8125 "/>
<path style=" stroke:none;fill-rule:nonzero;fill:rgb(0%,42.745098%,71.372549%);fill-opacity:1;" d="M 161.804688 86.769531 C 163.71875 86.769531 164.167969 87.714844 163.515625 88.550781 C 163.3125 88.808594 161.109375 91.128906 161.109375 91.128906 L 152.992188 91.128906 C 152.542969 91.128906 152.417969 91.234375 152.339844 91.320312 L 151.238281 92.546875 C 151.074219 92.738281 151.238281 92.867188 151.644531 92.867188 L 159.558594 92.867188 L 158.253906 94.308594 L 147.441406 94.308594 C 146.503906 94.308594 145.199219 93.769531 146.097656 92.695312 L 150.910156 87.4375 C 151.5625 86.769531 152.542969 86.75 153.359375 86.75 C 154.175781 86.769531 161.3125 86.769531 161.804688 86.769531 M 158.375 89.496094 C 158.375 89.496094 159.191406 88.507812 159.3125 88.378906 C 159.519531 88.144531 159.476562 88.058594 158.988281 88.058594 L 155.644531 88.058594 C 155.234375 88.058594 155.113281 88.121094 154.988281 88.273438 C 154.867188 88.445312 153.886719 89.476562 153.886719 89.476562 L 158.375 89.476562 Z M 158.375 89.496094 "/>
<path style=" stroke:none;fill-rule:nonzero;fill:rgb(0%,42.745098%,71.372549%);fill-opacity:1;" d="M 139.039062 86.769531 C 140.957031 86.769531 141.402344 87.714844 140.75 88.550781 C 140.546875 88.808594 138.34375 91.128906 138.34375 91.128906 L 130.265625 91.128906 C 129.816406 91.128906 129.695312 91.234375 129.613281 91.320312 L 128.472656 92.546875 C 128.308594 92.738281 128.472656 92.867188 128.878906 92.867188 L 136.792969 92.867188 L 135.488281 94.308594 L 124.675781 94.308594 C 123.699219 94.308594 122.433594 93.769531 123.332031 92.695312 L 128.144531 87.4375 C 128.796875 86.769531 129.777344 86.75 130.59375 86.75 C 131.410156 86.769531 138.507812 86.769531 139.039062 86.769531 M 135.570312 89.496094 C 135.570312 89.496094 136.386719 88.507812 136.507812 88.378906 C 136.710938 88.144531 136.671875 88.058594 136.183594 88.058594 L 132.835938 88.058594 C 132.429688 88.058594 132.304688 88.121094 132.183594 88.273438 C 132.0625 88.445312 131.082031 89.476562 131.082031 89.476562 L 135.570312 89.476562 Z M 135.570312 89.496094 "/>
<path style=" stroke:none;fill-rule:nonzero;fill:rgb(0%,42.745098%,71.372549%);fill-opacity:1;" d="M 49.488281 67.230469 L 37.535156 80.605469 L 47 80.605469 L 54.667969 72.0625 C 55.078125 71.652344 55.648438 71.222656 57.117188 71.222656 L 64.582031 71.222656 L 68.214844 67.230469 L 61.441406 67.230469 C 58.21875 67.230469 57.035156 67.9375 57.035156 67.9375 L 57.851562 67.058594 L 49.488281 67.230469 "/>
<path style=" stroke:none;fill-rule:nonzero;fill:rgb(0%,42.745098%,71.372549%);fill-opacity:1;" d="M 192.402344 69.378906 L 196.5625 69.378906 C 196.5625 69.378906 189.871094 76.894531 189.097656 77.773438 C 187.914062 79.148438 189.21875 80.605469 190.933594 80.605469 C 191.667969 80.605469 199.417969 80.605469 199.949219 80.605469 C 201.089844 80.605469 201.5 80.414062 201.949219 80.070312 C 202.519531 79.640625 203.785156 78.007812 203.785156 78.007812 L 200.640625 78.007812 C 199.296875 78.007812 199.132812 77.792969 199.785156 77.019531 C 200.234375 76.464844 206.722656 69.464844 206.722656 69.464844 L 210.554688 69.464844 L 212.71875 67.1875 L 208.558594 67.1875 L 210.515625 65.039062 L 200.398438 65.039062 L 198.4375 67.1875 L 194.398438 67.1875 L 192.402344 69.378906 "/>
<path style=" stroke:none;fill-rule:nonzero;fill:rgb(0%,42.745098%,71.372549%);fill-opacity:1;" d="M 134.019531 67.1875 L 135.976562 65.039062 L 125.859375 65.039062 L 123.902344 67.1875 L 100.648438 67.1875 C 98.117188 67.1875 97.300781 67.765625 96.484375 68.519531 L 92.773438 72.640625 C 91.917969 73.671875 91.753906 74.9375 95.382812 74.9375 L 103.382812 74.9375 C 103.789062 74.9375 104.359375 74.9375 104.035156 75.28125 C 103.707031 75.625 102.320312 77.105469 101.75 77.707031 C 101.546875 77.921875 101.300781 78.050781 100.769531 78.050781 L 87.308594 78.050781 L 85.023438 80.691406 L 105.992188 80.691406 C 107.378906 80.691406 108.808594 80.371094 109.621094 79.621094 L 114.273438 74.789062 C 115.128906 73.691406 114.683594 72.296875 110.804688 72.296875 C 106.972656 72.296875 103.707031 72.320312 103.21875 72.320312 C 102.238281 72.320312 101.953125 72.125 102.359375 71.738281 C 102.769531 71.332031 103.992188 70.085938 104.15625 69.914062 C 104.359375 69.722656 104.484375 69.570312 105.296875 69.570312 L 121.945312 69.570312 C 121.046875 70.578125 115.292969 77.019531 114.601562 77.835938 C 113.417969 79.210938 114.722656 80.671875 116.4375 80.671875 C 117.171875 80.671875 124.757812 80.671875 125.289062 80.671875 C 126.554688 80.671875 127.003906 80.480469 127.453125 80.136719 C 128.023438 79.707031 129.289062 78.074219 129.289062 78.074219 L 126.144531 78.074219 C 124.800781 78.074219 124.636719 77.859375 125.289062 77.085938 C 125.738281 76.527344 132.226562 69.527344 132.226562 69.527344 L 136.058594 69.527344 L 138.222656 67.25 L 134.019531 67.25 "/>
<path style=" stroke:none;fill-rule:nonzero;fill:rgb(0%,42.745098%,71.372549%);fill-opacity:1;" d="M 158.945312 67.164062 C 161.925781 67.164062 163.761719 68.5625 162.046875 70.449219 C 160.335938 72.363281 154.988281 78.160156 154.417969 78.78125 C 153.808594 79.449219 152.175781 80.585938 148.746094 80.605469 L 134.0625 80.605469 C 131.125 80.605469 130.265625 78.953125 131.285156 77.792969 L 139.488281 68.90625 C 141.117188 67.144531 142.503906 67.164062 145.035156 67.164062 L 158.945312 67.164062 M 149.113281 69.378906 C 148.625 69.378906 148.011719 69.3125 147.605469 69.785156 L 140.382812 77.472656 C 140.097656 77.792969 139.855469 78.117188 140.507812 78.117188 L 144.832031 78.117188 C 145.523438 78.117188 145.808594 78.074219 146.382812 77.429688 L 153.398438 69.980469 C 153.398438 69.980469 153.96875 69.421875 153.113281 69.378906 C 152.664062 69.355469 149.644531 69.378906 149.113281 69.378906 "/>
<path style=" stroke:none;fill-rule:nonzero;fill:rgb(0%,42.745098%,71.372549%);fill-opacity:1;" d="M 156.457031 80.605469 L 172.492188 63 L 181.996094 63 L 166.003906 80.605469 "/>
<path style=" stroke:none;fill-rule:nonzero;fill:rgb(0%,42.745098%,71.372549%);fill-opacity:1;" d="M 45.816406 61.132812 L 22.03125 61.132812 L 5.875 80.605469 L 16.644531 80.605469 L 22.195312 74.1875 L 36.1875 74.1875 C 39.65625 74.164062 41.289062 73.027344 41.859375 72.363281 C 42.429688 71.738281 47.160156 66.351562 48.875 64.460938 C 50.628906 62.550781 48.792969 61.132812 45.816406 61.132812 M 37.695312 64.351562 L 32.515625 70.300781 C 31.984375 70.859375 31.535156 71.074219 30.882812 71.074219 C 30.515625 71.074219 25.867188 71.050781 25.867188 71.050781 C 25.089844 71.050781 25.417969 70.601562 25.417969 70.601562 L 30.964844 64.246094 C 31.414062 63.773438 32.027344 63.816406 32.351562 63.816406 C 32.636719 63.816406 37.042969 63.792969 37.453125 63.816406 C 38.226562 63.835938 37.695312 64.351562 37.695312 64.351562 "/>
<path style=" stroke:none;fill-rule:nonzero;fill:rgb(0%,42.745098%,71.372549%);fill-opacity:1;" d="M 183.425781 66.222656 L 186.484375 63 L 195.625 63 L 192.6875 66.222656 "/>
<path style=" stroke:none;fill-rule:nonzero;fill:rgb(0%,42.745098%,71.372549%);fill-opacity:1;" d="M 170.207031 80.605469 L 182.691406 67.078125 L 191.953125 67.078125 L 179.753906 80.605469 "/>
<path style=" stroke:none;fill-rule:nonzero;fill:rgb(0%,42.745098%,71.372549%);fill-opacity:1;" d="M 88.652344 67.164062 C 92.039062 67.164062 92.894531 68.863281 91.671875 70.34375 C 91.304688 70.792969 87.386719 74.917969 87.386719 74.917969 L 72.988281 74.917969 C 72.210938 74.917969 72.007812 75.089844 71.84375 75.261719 L 69.84375 77.449219 C 69.519531 77.792969 69.84375 78.03125 70.578125 78.03125 L 84.65625 78.03125 L 82.371094 80.585938 L 63.15625 80.585938 C 61.441406 80.585938 59.195312 79.621094 60.789062 77.730469 L 69.355469 68.367188 C 70.5 67.1875 72.253906 67.144531 73.679688 67.144531 C 75.109375 67.164062 87.753906 67.164062 88.652344 67.164062 M 82.492188 71.976562 C 82.492188 71.976562 83.960938 70.234375 84.164062 70 C 84.53125 69.59375 84.449219 69.441406 83.59375 69.441406 L 77.636719 69.441406 C 76.945312 69.441406 76.699219 69.550781 76.453125 69.828125 C 76.210938 70.105469 74.457031 71.976562 74.457031 71.976562 Z M 82.492188 71.976562 "/>
<path style=" stroke:none;fill-rule:nonzero;fill:rgb(0%,42.745098%,71.372549%);fill-opacity:1;" d="M 233.933594 67.164062 C 237.320312 67.164062 238.175781 68.863281 236.953125 70.34375 C 236.585938 70.792969 232.667969 74.917969 232.667969 74.917969 L 218.265625 74.917969 C 217.492188 74.917969 217.289062 75.089844 217.125 75.261719 L 215.125 77.449219 C 214.800781 77.792969 215.125 78.03125 215.859375 78.03125 L 229.933594 78.03125 L 227.648438 80.585938 L 208.433594 80.585938 C 206.722656 80.585938 204.476562 79.621094 206.070312 77.730469 L 214.636719 68.367188 C 215.777344 67.1875 217.53125 67.144531 218.960938 67.144531 C 220.347656 67.164062 232.996094 67.164062 233.933594 67.164062 M 227.773438 71.976562 C 227.773438 71.976562 229.242188 70.234375 229.445312 70 C 229.851562 69.59375 229.730469 69.441406 228.875 69.441406 L 222.917969 69.441406 C 222.222656 69.441406 221.980469 69.550781 221.734375 69.828125 C 221.488281 70.105469 219.734375 71.976562 219.734375 71.976562 Z M 227.773438 71.976562 "/>
</g>
</svg>
