<svg xmlns="http://www.w3.org/2000/svg" xmlns:xlink="http://www.w3.org/1999/xlink" width="266pt" height="140pt" viewBox="0 0 266 140" version="1.1">
<g id="surface7">
<path style=" stroke:none;fill-rule:nonzero;fill:rgb(100%,100%,100%);fill-opacity:1;" d="M 0.785156 69.847656 C 0.785156 81.542969 20.277344 92.460938 51.015625 98.617188 C 44.878906 116.71875 49.914062 131.308594 66.742188 136.992188 C 84.039062 142.835938 109.804688 138.789062 134.261719 126.265625 C 158.097656 138.285156 182.191406 143.015625 199.003906 137.3125 C 216.28125 131.453125 221.539062 115.875 215.230469 97.207031 C 247.246094 91.007812 265.152344 81.699219 265.152344 69.847656 C 265.152344 58.421875 245.621094 48.539062 215.300781 42.425781 C 222.089844 22.988281 216.335938 8.75 198.8125 2.832031 C 181.917969 -2.875 157.546875 2.097656 133.355469 14.433594 C 108.191406 1.34375 84.058594 -2.65625 66.550781 3.28125 C 49.671875 9.003906 44.859375 23.859375 51.015625 42.296875 C 21.316406 48.363281 0.785156 58.46875 0.785156 69.847656 Z M 0.785156 69.847656 "/>
<path style=" stroke:none;fill-rule:nonzero;fill: #C0C0C0;fill-opacity:1;" d="M 208.878906 48.496094 C 206.441406 48.007812 203.917969 47.542969 201.320312 47.101562 C 201.746094 46.082031 202.136719 45.074219 202.488281 44.082031 C 208.207031 27.8125 204.46875 14.707031 191.695312 10.390625 C 179.445312 6.253906 159.414062 10.570312 139.183594 20.882812 C 137.238281 21.875 135.289062 22.925781 133.339844 24.023438 C 132.039062 23.296875 130.742188 22.59375 129.449219 21.917969 C 108.246094 10.890625 86.996094 6.246094 74.234375 10.570312 C 61.996094 14.722656 58.375 27.042969 63.523438 42.460938 C 64.019531 43.949219 64.601562 45.472656 65.257812 47.015625 C 62.25 47.515625 59.347656 48.050781 56.570312 48.617188 C 31.714844 53.695312 15.839844 61.652344 15.839844 69.902344 C 15.839844 78.429688 32.878906 86.976562 58.769531 92.160156 C 60.8125 92.570312 62.933594 92.957031 65.117188 93.324219 C 64.410156 94.996094 63.792969 96.636719 63.273438 98.234375 C 58.363281 113.382812 62.199219 125.414062 74.402344 129.539062 C 87.007812 133.796875 108.164062 129.417969 128.761719 118.871094 C 130.390625 118.035156 132.027344 117.152344 133.664062 116.226562 C 135.785156 117.421875 137.902344 118.554688 140.011719 119.617188 C 159.964844 129.675781 179.671875 133.738281 191.863281 129.601562 C 204.457031 125.332031 208.550781 112.410156 203.234375 96.6875 C 202.828125 95.484375 202.359375 94.257812 201.828125 93.011719 C 203.3125 92.753906 204.773438 92.488281 206.195312 92.210938 C 233.109375 86.988281 250.621094 78.542969 250.621094 69.902344 C 250.621094 61.621094 234.234375 53.609375 208.878906 48.496094 Z M 208.878906 48.496094 "/>
<path style=" stroke:none;fill-rule:nonzero;fill:rgb(100%,100%,100%);fill-opacity:1;" d="M 203.039062 86.632812 C 201.753906 86.882812 200.4375 87.125 199.097656 87.355469 C 196.125 81.847656 192.113281 75.988281 187.207031 69.933594 C 191.890625 64.023438 195.746094 58.238281 198.632812 52.761719 C 201.035156 53.171875 203.367188 53.601562 205.613281 54.054688 C 227.339844 58.433594 240.589844 64.914062 240.589844 69.902344 C 240.589844 75.222656 226.277344 82.125 203.039062 86.632812 Z M 193.394531 97.828125 C 195.746094 104.78125 196.082031 111.066406 194.523438 115.980469 C 193.125 120.394531 190.316406 123.339844 186.835938 124.519531 C 179.4375 127.027344 163.617188 123.765625 146.550781 115.164062 C 144.59375 114.179688 142.625 113.125 140.648438 112.011719 C 147.261719 107.773438 153.875 102.84375 160.328125 97.371094 C 171.679688 96.78125 182.402344 95.816406 192.125 94.5 C 192.605469 95.632812 193.03125 96.742188 193.394531 97.828125 Z M 95.882812 124.085938 C 88.652344 125.582031 82.894531 125.625 79.414062 124.449219 C 72.007812 121.945312 68.929688 112.285156 73.128906 99.328125 C 73.609375 97.847656 74.183594 96.320312 74.84375 94.765625 C 84.460938 96.007812 95.105469 96.90625 106.480469 97.445312 C 112.980469 102.800781 119.78125 107.722656 126.636719 112.035156 C 125.140625 112.878906 123.648438 113.6875 122.164062 114.445312 C 113.054688 119.109375 103.925781 122.421875 95.882812 124.085938 Z M 62.015625 86.601562 C 50.566406 84.308594 41.113281 81.332031 34.632812 78.078125 C 28.808594 75.15625 25.867188 72.257812 25.867188 69.902344 C 25.867188 64.894531 38.613281 58.507812 59.871094 54.167969 C 62.449219 53.640625 65.152344 53.144531 67.953125 52.675781 C 70.890625 58.273438 74.746094 64.128906 79.394531 70.046875 C 74.683594 76.054688 70.777344 82 67.808594 87.664062 C 65.8125 87.328125 63.875 86.972656 62.015625 86.601562 Z M 73.367188 41.332031 C 68.953125 28.121094 71.886719 18.15625 79.257812 15.65625 C 87.113281 12.992188 104.480469 16.792969 122.789062 26.3125 C 123.957031 26.921875 125.132812 27.558594 126.3125 28.21875 C 119.488281 32.507812 112.75 37.394531 106.3125 42.71875 C 95.269531 43.316406 84.699219 44.28125 74.980469 45.570312 C 74.371094 44.128906 73.828125 42.714844 73.367188 41.332031 Z M 174.640625 55.980469 C 172.316406 53.632812 169.933594 51.335938 167.5 49.105469 C 174.992188 49.660156 182.171875 50.394531 188.910156 51.296875 C 186.886719 55.09375 184.363281 59.066406 181.394531 63.140625 C 179.265625 60.769531 177.011719 58.382812 174.640625 55.980469 Z M 133.34375 32.417969 C 137.96875 35.351562 142.601562 38.632812 147.15625 42.1875 C 142.566406 42.0625 137.917969 41.996094 133.230469 41.996094 C 128.585938 41.996094 123.972656 42.058594 119.410156 42.183594 C 123.96875 38.660156 128.644531 35.386719 133.34375 32.417969 Z M 91.777344 56.023438 C 89.457031 58.378906 87.246094 60.753906 85.148438 63.136719 C 82.230469 59.078125 79.730469 55.085938 77.691406 51.234375 C 84.386719 50.355469 91.53125 49.636719 98.976562 49.09375 C 96.507812 51.347656 94.105469 53.660156 91.777344 56.023438 Z M 99.1875 91.132812 C 91.5 90.632812 84.25 89.949219 77.550781 89.097656 C 79.625 85.175781 82.179688 81.097656 85.160156 76.953125 C 87.261719 79.332031 89.484375 81.707031 91.816406 84.070312 C 94.195312 86.476562 96.660156 88.835938 99.1875 91.132812 Z M 133.621094 107.804688 C 128.867188 104.800781 124.125 101.476562 119.492188 97.902344 C 123.988281 98.003906 128.570312 98.058594 133.230469 98.058594 C 138.015625 98.058594 142.746094 97.996094 147.402344 97.875 C 142.832031 101.511719 138.214844 104.839844 133.621094 107.804688 Z M 181.492188 76.742188 C 184.628906 80.933594 187.273438 84.988281 189.375 88.839844 C 182.566406 89.75 175.21875 90.484375 167.472656 91.027344 C 169.910156 88.765625 172.316406 86.429688 174.679688 84.03125 C 177.074219 81.601562 179.34375 79.167969 181.492188 76.742188 Z M 165.992188 81.09375 C 162.324219 84.824219 158.554688 88.382812 154.730469 91.742188 C 147.761719 92.03125 140.566406 92.183594 133.230469 92.183594 C 125.921875 92.183594 118.816406 92.050781 111.972656 91.789062 C 107.992188 88.386719 104.144531 84.816406 100.496094 81.125 C 96.859375 77.445312 93.511719 73.734375 90.480469 70.046875 C 93.511719 66.347656 96.851562 62.628906 100.46875 58.957031 L 100.464844 58.957031 C 104.09375 55.273438 107.910156 51.722656 111.851562 48.339844 C 118.832031 48.03125 125.992188 47.871094 133.230469 47.871094 C 140.5 47.871094 147.667969 48.03125 154.648438 48.34375 C 158.53125 51.703125 162.320312 55.242188 165.960938 58.925781 C 169.640625 62.652344 173.023438 66.34375 176.082031 69.960938 C 173.03125 73.644531 169.660156 77.371094 165.992188 81.09375 Z M 186.683594 15.480469 C 194.546875 18.136719 197.605469 28.851562 192.664062 42.894531 C 192.347656 43.792969 191.992188 44.707031 191.609375 45.628906 C 181.867188 44.3125 171.289062 43.335938 160.214844 42.726562 C 153.765625 37.34375 147.078125 32.453125 140.371094 28.214844 C 142.171875 27.199219 143.976562 26.230469 145.769531 25.3125 C 163.101562 16.476562 179.304688 12.988281 186.683594 15.480469 Z M 186.683594 15.480469 "/>
<path style=" stroke:none;fill-rule:nonzero;fill: #C0C0C0;fill-opacity:1;" d="M 133.230469 57.621094 C 144.808594 57.621094 154.195312 63.121094 154.195312 69.902344 C 154.195312 76.6875 144.808594 82.1875 133.230469 82.1875 C 121.652344 82.1875 112.265625 76.6875 112.265625 69.902344 C 112.265625 63.121094 121.652344 57.621094 133.230469 57.621094 "/>
</g>
</svg>
