<svg xmlns="http://www.w3.org/2000/svg" xmlns:xlink="http://www.w3.org/1999/xlink" width="266pt" height="140pt" viewBox="0 0 266 140" version="1.1">
<g id="surface11">
<path style=" stroke:none;fill-rule:nonzero;fill: #C0C0C0;fill-opacity:1;" d="M 62.789062 99.117188 L 64.625 99.117188 L 66.5 102.035156 L 68.375 99.117188 L 70.210938 99.117188 L 70.210938 103.023438 L 68.785156 103.023438 L 68.785156 100.425781 L 67.070312 103.023438 L 65.886719 103.023438 L 64.175781 100.425781 L 64.175781 103.023438 L 62.789062 103.023438 Z M 62.789062 99.117188 "/>
<path style=" stroke:none;fill-rule:nonzero;fill: #C0C0C0;fill-opacity:1;" d="M 77.515625 101.457031 L 76.617188 100.0625 L 75.71875 101.457031 Z M 75.925781 99.117188 L 77.394531 99.117188 L 80.167969 103.023438 L 78.496094 103.023438 L 77.882812 102.121094 L 75.269531 102.121094 L 74.660156 103.023438 L 73.070312 103.023438 Z M 75.925781 99.117188 "/>
<path style=" stroke:none;fill-rule:nonzero;fill: #C0C0C0;fill-opacity:1;" d="M 83.105469 99.117188 L 84.65625 99.117188 L 84.65625 103.023438 L 83.105469 103.023438 Z M 83.105469 99.117188 "/>
<path style=" stroke:none;fill-rule:nonzero;fill: #C0C0C0;fill-opacity:1;" d="M 88.285156 99.117188 L 89.671875 99.117188 L 92.734375 101.691406 L 92.734375 99.117188 L 94.242188 99.117188 L 94.242188 103.023438 L 92.855469 103.023438 L 89.796875 100.492188 L 89.796875 103.023438 L 88.285156 103.023438 Z M 88.285156 99.117188 "/>
<path style=" stroke:none;fill-rule:nonzero;fill: #C0C0C0;fill-opacity:1;" d="M 97.832031 99.117188 L 102.890625 99.117188 L 102.890625 99.824219 L 99.382812 99.824219 L 99.382812 100.683594 L 102.6875 100.683594 L 102.6875 101.371094 L 99.382812 101.371094 L 99.382812 102.335938 L 103.09375 102.335938 L 102.933594 103.023438 L 97.832031 103.023438 Z M 97.832031 99.117188 "/>
<path style=" stroke:none;fill-rule:nonzero;fill: #C0C0C0;fill-opacity:1;" d="M 114.640625 101.027344 L 117.742188 101.027344 L 117.742188 101.777344 L 114.640625 101.777344 Z M 114.640625 101.027344 "/>
<path style=" stroke:none;fill-rule:nonzero;fill: #C0C0C0;fill-opacity:1;" d="M 129.859375 99.117188 L 131.246094 99.117188 L 134.304688 101.691406 L 134.304688 99.117188 L 135.816406 99.117188 L 135.816406 103.023438 L 134.429688 103.023438 L 131.367188 100.492188 L 131.367188 103.023438 L 129.859375 103.023438 Z M 129.859375 99.117188 "/>
<path style=" stroke:none;fill-rule:nonzero;fill: #C0C0C0;fill-opacity:1;" d="M 142.710938 102.421875 C 143.363281 102.421875 143.851562 102.316406 144.179688 102.078125 C 144.503906 101.84375 144.667969 101.519531 144.667969 101.070312 C 144.667969 100.640625 144.503906 100.296875 144.179688 100.082031 C 143.851562 99.847656 143.363281 99.738281 142.710938 99.738281 C 142.058594 99.738281 141.566406 99.847656 141.242188 100.082031 C 140.914062 100.320312 140.75 100.640625 140.75 101.070312 C 140.75 101.5 140.914062 101.84375 141.242188 102.078125 C 141.566406 102.316406 142.058594 102.421875 142.710938 102.421875 M 142.710938 103.132812 C 142.136719 103.132812 141.648438 103.089844 141.242188 102.980469 C 140.792969 102.894531 140.425781 102.746094 140.140625 102.574219 C 139.855469 102.402344 139.609375 102.1875 139.445312 101.929688 C 139.28125 101.671875 139.203125 101.394531 139.203125 101.070312 C 139.203125 100.75 139.28125 100.46875 139.445312 100.210938 C 139.609375 99.953125 139.855469 99.738281 140.140625 99.566406 C 140.464844 99.394531 140.832031 99.246094 141.242188 99.160156 C 141.691406 99.074219 142.179688 99.007812 142.710938 99.007812 C 143.28125 99.007812 143.769531 99.050781 144.179688 99.160156 C 144.628906 99.246094 144.996094 99.394531 145.28125 99.566406 C 145.566406 99.738281 145.808594 99.953125 145.972656 100.210938 C 146.136719 100.46875 146.21875 100.75 146.21875 101.070312 C 146.21875 101.394531 146.136719 101.671875 145.972656 101.929688 C 145.808594 102.1875 145.605469 102.402344 145.28125 102.574219 C 144.996094 102.746094 144.628906 102.894531 144.179688 102.980469 C 143.769531 103.089844 143.28125 103.132812 142.710938 103.132812 "/>
<path style=" stroke:none;fill-rule:nonzero;fill: #C0C0C0;fill-opacity:1;" d="M 148.503906 99.117188 L 150.257812 99.117188 L 152.050781 101.886719 L 153.886719 99.117188 L 155.5625 99.117188 L 152.746094 103.023438 L 151.316406 103.023438 Z M 148.503906 99.117188 "/>
<path style=" stroke:none;fill-rule:nonzero;fill: #C0C0C0;fill-opacity:1;" d="M 161.230469 101.457031 L 160.335938 100.0625 L 159.4375 101.457031 Z M 159.640625 99.117188 L 161.109375 99.117188 L 163.882812 103.023438 L 162.210938 103.023438 L 161.597656 102.121094 L 158.988281 102.121094 L 158.375 103.023438 L 156.785156 103.023438 Z M 159.640625 99.117188 "/>
<path style=" stroke:none;fill-rule:nonzero;fill: #C0C0C0;fill-opacity:1;" d="M 172.328125 101.757812 C 172.371094 101.992188 172.492188 102.164062 172.777344 102.273438 C 173.023438 102.378906 173.429688 102.445312 173.921875 102.445312 C 174.164062 102.445312 174.367188 102.421875 174.53125 102.402344 C 174.695312 102.378906 174.816406 102.335938 174.941406 102.292969 C 175.0625 102.25 175.101562 102.1875 175.144531 102.121094 C 175.183594 102.058594 175.226562 101.992188 175.226562 101.929688 C 175.226562 101.820312 175.144531 101.734375 175.019531 101.648438 C 174.859375 101.5625 174.613281 101.5 174.207031 101.457031 L 173.226562 101.371094 C 172.859375 101.328125 172.492188 101.285156 172.207031 101.222656 C 171.921875 101.15625 171.675781 101.09375 171.472656 100.984375 C 171.269531 100.878906 171.105469 100.769531 171.023438 100.640625 C 170.902344 100.511719 170.859375 100.339844 170.859375 100.167969 C 170.859375 99.996094 170.941406 99.824219 171.0625 99.675781 C 171.226562 99.523438 171.390625 99.417969 171.675781 99.308594 C 171.921875 99.222656 172.246094 99.136719 172.574219 99.09375 C 172.941406 99.050781 173.308594 99.03125 173.757812 99.03125 C 174.289062 99.03125 174.734375 99.074219 175.101562 99.136719 C 175.46875 99.203125 175.753906 99.289062 175.960938 99.394531 C 176.164062 99.503906 176.328125 99.632812 176.449219 99.761719 C 176.570312 99.910156 176.613281 100.0625 176.652344 100.210938 L 175.183594 100.320312 C 175.101562 100.105469 174.980469 99.953125 174.734375 99.847656 C 174.53125 99.761719 174.207031 99.695312 173.757812 99.695312 C 173.511719 99.695312 173.265625 99.71875 173.105469 99.738281 C 172.941406 99.761719 172.820312 99.804688 172.695312 99.824219 C 172.574219 99.867188 172.53125 99.910156 172.492188 99.953125 C 172.453125 99.996094 172.410156 100.0625 172.410156 100.105469 C 172.410156 100.253906 172.492188 100.363281 172.65625 100.425781 C 172.820312 100.492188 173.0625 100.554688 173.429688 100.597656 L 174.449219 100.707031 C 175.265625 100.792969 175.835938 100.921875 176.203125 101.113281 C 176.570312 101.308594 176.777344 101.5625 176.777344 101.929688 C 176.777344 102.101562 176.734375 102.25 176.613281 102.402344 C 176.488281 102.550781 176.328125 102.679688 176.082031 102.789062 C 175.835938 102.894531 175.550781 102.980469 175.183594 103.046875 C 174.816406 103.109375 174.410156 103.132812 173.921875 103.132812 C 172.898438 103.132812 172.125 103.023438 171.59375 102.789062 C 171.0625 102.550781 170.777344 102.207031 170.738281 101.757812 Z M 172.328125 101.757812 "/>
<path style=" stroke:none;fill-rule:nonzero;fill: #C0C0C0;fill-opacity:1;" d="M 186.363281 101.671875 C 186.324219 101.886719 186.242188 102.078125 186.078125 102.25 C 185.914062 102.421875 185.710938 102.574219 185.464844 102.703125 C 185.222656 102.832031 184.894531 102.9375 184.527344 103.003906 C 184.160156 103.066406 183.710938 103.109375 183.222656 103.109375 C 182.652344 103.109375 182.160156 103.066406 181.753906 102.960938 C 181.34375 102.851562 180.976562 102.722656 180.691406 102.550781 C 180.40625 102.378906 180.203125 102.164062 180.039062 101.90625 C 179.875 101.648438 179.835938 101.371094 179.835938 101.070312 C 179.835938 100.75 179.917969 100.46875 180.082031 100.210938 C 180.242188 99.953125 180.449219 99.738281 180.773438 99.566406 C 181.058594 99.394531 181.425781 99.246094 181.875 99.160156 C 182.285156 99.074219 182.773438 99.007812 183.304688 99.007812 C 183.792969 99.007812 184.199219 99.03125 184.527344 99.09375 C 184.894531 99.160156 185.179688 99.246094 185.425781 99.351562 C 185.667969 99.460938 185.875 99.609375 185.996094 99.78125 C 186.160156 99.953125 186.242188 100.125 186.324219 100.339844 L 184.773438 100.449219 C 184.691406 100.210938 184.566406 100.039062 184.324219 99.910156 C 184.121094 99.78125 183.753906 99.71875 183.304688 99.71875 C 182.691406 99.71875 182.242188 99.824219 181.957031 100.0625 C 181.628906 100.296875 181.507812 100.621094 181.507812 101.050781 C 181.507812 101.480469 181.671875 101.820312 181.996094 102.058594 C 182.324219 102.292969 182.773438 102.402344 183.304688 102.402344 C 183.792969 102.402344 184.121094 102.335938 184.363281 102.207031 C 184.609375 102.078125 184.730469 101.886719 184.773438 101.648438 L 186.363281 101.648438 Z M 186.363281 101.671875 "/>
<path style=" stroke:none;fill-rule:nonzero;fill: #C0C0C0;fill-opacity:1;" d="M 192.808594 102.421875 C 193.460938 102.421875 193.953125 102.316406 194.277344 102.078125 C 194.605469 101.84375 194.765625 101.519531 194.765625 101.070312 C 194.765625 100.640625 194.605469 100.296875 194.277344 100.082031 C 193.953125 99.847656 193.460938 99.738281 192.808594 99.738281 C 192.15625 99.738281 191.667969 99.847656 191.339844 100.082031 C 191.015625 100.320312 190.851562 100.640625 190.851562 101.070312 C 190.851562 101.5 191.015625 101.84375 191.339844 102.078125 C 191.667969 102.316406 192.15625 102.421875 192.808594 102.421875 M 192.808594 103.132812 C 192.238281 103.132812 191.75 103.089844 191.339844 102.980469 C 190.890625 102.894531 190.523438 102.746094 190.238281 102.574219 C 189.953125 102.402344 189.707031 102.1875 189.546875 101.929688 C 189.382812 101.671875 189.300781 101.394531 189.300781 101.070312 C 189.300781 100.75 189.382812 100.46875 189.546875 100.210938 C 189.707031 99.953125 189.953125 99.738281 190.238281 99.566406 C 190.566406 99.394531 190.933594 99.246094 191.339844 99.160156 C 191.789062 99.074219 192.277344 99.007812 192.808594 99.007812 C 193.378906 99.007812 193.871094 99.050781 194.277344 99.160156 C 194.726562 99.246094 195.09375 99.394531 195.378906 99.566406 C 195.664062 99.738281 195.910156 99.953125 196.074219 100.210938 C 196.234375 100.46875 196.316406 100.75 196.316406 101.070312 C 196.316406 101.394531 196.234375 101.671875 196.074219 101.929688 C 195.910156 102.1875 195.707031 102.402344 195.378906 102.574219 C 195.09375 102.746094 194.726562 102.894531 194.277344 102.980469 C 193.871094 103.089844 193.378906 103.132812 192.808594 103.132812 "/>
<path style=" stroke:none;fill-rule:nonzero;fill: #C0C0C0;fill-opacity:1;" d="M 201.050781 99.824219 L 198.804688 99.824219 L 198.804688 99.117188 L 204.84375 99.117188 L 204.84375 99.824219 L 202.601562 99.824219 L 202.601562 103.023438 L 201.050781 103.023438 Z M 201.050781 99.824219 "/>
<path style=" stroke:none;fill-rule:nonzero;fill: #C0C0C0;fill-opacity:1;" d="M 207.902344 99.117188 L 209.453125 99.117188 L 209.453125 103.023438 L 207.902344 103.023438 Z M 207.902344 99.117188 "/>
<path style=" stroke:none;fill-rule:nonzero;fill: #C0C0C0;fill-opacity:1;" d="M 216.757812 101.457031 L 215.859375 100.0625 L 214.960938 101.457031 Z M 215.167969 99.117188 L 216.636719 99.117188 L 219.410156 103.023438 L 217.738281 103.023438 L 217.125 102.121094 L 214.59375 102.121094 L 213.984375 103.023438 L 212.390625 103.023438 Z M 215.167969 99.117188 "/>
<path style=" stroke:none;fill-rule:nonzero;fill: #C0C0C0;fill-opacity:1;" d="M 60.257812 81.015625 C 58.789062 81.015625 57.808594 81.078125 57.117188 81.101562 L 56.832031 80.863281 L 58.707031 79.554688 C 60.339844 79.8125 63.441406 79.941406 66.460938 79.941406 C 70.132812 79.941406 73.109375 79.8125 75.351562 79.535156 L 75.597656 79.664062 C 75.3125 80.027344 75.027344 80.648438 74.945312 81.1875 C 74.171875 81.078125 73.070312 81.015625 71.519531 81.015625 L 68.949219 81.015625 C 68.824219 82.667969 68.664062 84.773438 68.664062 86.878906 C 68.664062 89.003906 68.742188 91.085938 68.867188 92.761719 C 68.132812 92.695312 67.234375 92.652344 66.296875 92.652344 C 65.398438 92.652344 64.460938 92.695312 63.765625 92.761719 C 63.96875 90.871094 64.132812 88.894531 64.132812 86.878906 C 64.132812 84.878906 64.050781 82.863281 63.929688 81.015625 Z M 60.257812 81.015625 "/>
<path style=" stroke:none;fill-rule:nonzero;fill: #C0C0C0;fill-opacity:1;" d="M 103.667969 86.75 C 101.953125 86.964844 97.546875 86.964844 95.914062 86.964844 C 93.507812 86.964844 90.734375 87.027344 88.328125 87.136719 C 88.285156 88.894531 88.164062 90.785156 87.796875 92.652344 L 86.082031 92.652344 C 84.980469 92.652344 83.675781 92.761719 82.738281 92.867188 C 82.902344 90.742188 82.980469 88.722656 82.980469 86.640625 C 82.980469 84.277344 82.859375 82.003906 82.453125 79.640625 C 86.207031 79.597656 84.53125 79.640625 88 79.535156 C 88.121094 81.679688 88.328125 84.0625 88.328125 86.191406 C 90.980469 86.125 94.363281 86.105469 96.40625 86.105469 C 100.8125 86.105469 103.828125 86.082031 103.871094 84.921875 C 103.992188 82.96875 104.117188 81.445312 104.320312 79.640625 L 109.746094 79.75 C 109.378906 82.109375 108.96875 87.070312 108.96875 90.207031 C 108.96875 91.277344 109.011719 91.902344 109.132812 92.632812 C 107.054688 92.632812 105.21875 92.632812 103.585938 92.847656 L 103.585938 86.75 Z M 103.667969 86.75 "/>
<path style=" stroke:none;fill-rule:nonzero;fill: #C0C0C0;fill-opacity:1;" d="M 132.960938 92.761719 C 129.207031 92.695312 126.839844 92.652344 121.902344 92.652344 C 119.78125 92.652344 119.046875 92.675781 118.273438 92.761719 C 119.210938 89.992188 119.496094 88.765625 119.496094 85.632812 C 119.496094 83.722656 119.457031 81.421875 118.066406 79.664062 C 120.394531 79.726562 122.800781 79.769531 126.226562 79.792969 C 130.0625 79.792969 132.550781 79.683594 133.855469 79.46875 L 133.980469 79.640625 L 132.0625 80.90625 C 130.835938 80.863281 129.289062 80.84375 127.820312 80.84375 C 126.511719 80.84375 125.289062 80.863281 124.351562 80.90625 C 124.390625 81.746094 124.472656 82.691406 124.472656 83.613281 C 124.472656 84.257812 124.433594 84.878906 124.351562 85.4375 L 128.921875 85.4375 C 130.308594 85.4375 132.019531 85.332031 132.59375 85.160156 L 132.917969 85.265625 L 131.652344 86.683594 C 131.042969 86.640625 130.226562 86.621094 128.921875 86.621094 L 124.433594 86.621094 C 124.308594 88.316406 124.1875 89.90625 123.984375 91.558594 C 124.675781 91.578125 125.535156 91.601562 126.269531 91.601562 C 126.839844 91.601562 132.347656 91.535156 134.222656 91.363281 L 134.507812 91.578125 Z M 132.960938 92.761719 "/>
<path style=" stroke:none;fill-rule:nonzero;fill: #C0C0C0;fill-opacity:1;" d="M 172.65625 90.335938 C 169.148438 91.792969 165.636719 92.847656 161.761719 92.847656 C 155.4375 92.847656 150.746094 90.550781 150.746094 86.597656 C 150.746094 83.484375 154.09375 81.121094 158.132812 80.585938 L 165.84375 79.554688 C 166.371094 79.492188 167.066406 79.449219 167.433594 79.449219 C 170.535156 79.449219 172.941406 80.179688 174.734375 80.972656 L 170.574219 82.839844 C 168.699219 81.875 166.210938 80.972656 162.824219 80.972656 C 159.519531 80.972656 155.929688 82.796875 155.929688 86.167969 C 155.929688 90.785156 163.433594 91.257812 164.820312 91.257812 C 167.351562 91.257812 169.269531 90.914062 171.878906 89.796875 Z M 172.65625 90.335938 "/>
<path style=" stroke:none;fill-rule:nonzero;fill: #C0C0C0;fill-opacity:1;" d="M 197.378906 92.976562 C 198.804688 92.675781 201.253906 92.546875 203.171875 92.546875 C 198.847656 88.207031 193.21875 81.917969 191.828125 79.449219 C 190.648438 79.578125 189.300781 79.664062 188.199219 79.664062 C 187.058594 81.917969 177.222656 90.550781 174.449219 92.78125 C 176.121094 92.632812 177.835938 92.566406 179.550781 92.566406 C 180.570312 91.257812 182.773438 89.089844 184.039062 87.949219 C 186.035156 87.648438 190.730469 87.605469 192.808594 87.5625 Z M 189.015625 82.582031 C 189.75 84 190.890625 85.332031 191.992188 86.707031 C 189.585938 86.75 187.179688 86.8125 184.773438 86.921875 C 186.445312 85.523438 187.996094 83.914062 188.933594 82.582031 Z M 189.015625 82.582031 "/>
<path style=" stroke:none;fill-rule:nonzero;fill: #C0C0C0;fill-opacity:1;" d="M 207.25 81.015625 C 205.78125 81.015625 204.804688 81.078125 204.109375 81.101562 L 203.824219 80.863281 L 205.703125 79.554688 C 207.332031 79.8125 210.433594 79.941406 213.453125 79.941406 C 217.125 79.941406 220.101562 79.8125 222.347656 79.535156 L 222.589844 79.664062 C 222.304688 80.027344 222.0625 80.648438 221.9375 81.1875 C 221.164062 81.078125 220.0625 81.015625 218.511719 81.015625 L 215.902344 81.015625 C 215.777344 82.667969 215.613281 84.773438 215.613281 86.878906 C 215.613281 89.003906 215.738281 91.085938 215.820312 92.761719 C 215.085938 92.695312 214.1875 92.652344 213.25 92.652344 C 212.351562 92.652344 211.453125 92.695312 210.71875 92.761719 C 210.921875 90.871094 211.085938 88.894531 211.085938 86.878906 C 211.085938 84.878906 211.003906 82.863281 210.882812 81.015625 Z M 207.25 81.015625 "/>
<path style=" stroke:none;fill-rule:nonzero;fill:rgb(0%,29.803922%,14.117647%);fill-opacity:1;" d="M 215.167969 72.339844 C 135.855469 53.035156 72.945312 65.082031 60.910156 74.035156 C 61.890625 71.890625 129.53125 54.109375 215.167969 72.339844 "/>
<path style=" stroke:none;fill-rule:nonzero;fill: #C0C0C0;fill-opacity:1;" d="M 87.675781 46.421875 C 103.382812 42.300781 141.242188 35.621094 194.03125 42.128906 C 137.855469 33.390625 102.6875 40.96875 87.675781 46.421875 "/>
<path style=" stroke:none;fill-rule:nonzero;fill: #C0C0C0;fill-opacity:1;" d="M 233.078125 64.761719 C 241.726562 65.535156 255.269531 69.679688 255.269531 69.679688 C 237.441406 58.964844 220.183594 58.554688 217.574219 58.640625 C 221.328125 59.820312 228.914062 62.527344 233.078125 64.761719 "/>
<path style=" stroke:none;fill-rule:nonzero;fill: #C0C0C0;fill-opacity:1;" d="M 10.484375 42.300781 C 11.261719 47.820312 27.539062 56 52.058594 56.363281 C 50.875 56.34375 15.910156 52.90625 10.484375 42.300781 "/>
<path style=" stroke:none;fill-rule:nonzero;fill: #C0C0C0;fill-opacity:1;" d="M 56.707031 62.464844 C 43.410156 65.0625 36.636719 68.648438 32.515625 70.6875 C 34.1875 67.421875 48.304688 58.210938 70.988281 56.515625 Z M 56.707031 62.464844 "/>
<path style=" stroke:none;fill-rule:nonzero;fill: #C0C0C0;fill-opacity:1;" d="M 224.386719 55.527344 C 225.242188 55.3125 217.328125 51.597656 211.207031 50.761719 C 214.023438 50.523438 216.511719 50.78125 219.082031 51.40625 C 219.042969 51.082031 218.960938 50.78125 218.878906 50.546875 C 219.082031 49.171875 209.128906 49.449219 199.378906 42.964844 C 199.050781 43.09375 198.886719 43.976562 199.132812 44.425781 C 199.5 45.5625 200.355469 46.292969 201.742188 47.304688 C 157.804688 40.949219 119.007812 45.992188 99.667969 48.851562 C 93.140625 49.816406 89.265625 50.351562 87.59375 50.351562 C 67.886719 53.101562 43.246094 49 24.847656 43.589844 C 25.90625 45.15625 47.039062 53.402344 80.902344 55.140625 C 63.808594 60.789062 41.980469 71.09375 34.023438 77.558594 C 74.539062 60.980469 115.945312 56.792969 139.855469 56.816406 C 121.25 55.636719 104.238281 55.722656 89.0625 57.503906 C 102.769531 54.195312 161.558594 48.25 248.457031 75.476562 C 242.785156 69.140625 191.175781 44.792969 119.292969 49.664062 C 131.492188 47.410156 172.125 47.796875 203.132812 54.648438 C 207.617188 55.636719 211.371094 56.792969 215.65625 58.105469 C 217.859375 57.4375 221.121094 56.214844 224.386719 55.527344 "/>
</g>
</svg>
