<svg xmlns="http://www.w3.org/2000/svg" xmlns:xlink="http://www.w3.org/1999/xlink" width="266pt" height="140pt" viewBox="0 0 266 140" version="1.1">
<g id="surface9">
<path style=" stroke:none;fill-rule:nonzero;fill: #C0C0C0;fill-opacity:1;" d="M 120.300781 78.34375 L 133.171875 78.34375 L 136.9375 105.710938 L 141.113281 78.34375 L 150.078125 78.34375 L 154.574219 105.710938 L 158.671875 78.34375 L 170.710938 78.34375 L 160.917969 119.742188 L 149.578125 119.742188 L 145.964844 98.101562 L 141.6875 119.742188 L 130.738281 119.742188 Z M 201.054688 78.441406 L 214.765625 78.441406 L 220.285156 103.539062 L 226.472656 78.144531 L 239.511719 78.144531 L 226.457031 119.742188 L 214.15625 119.742188 Z M 242.6875 78.441406 L 242.6875 119.742188 L 266 119.742188 L 266 109.171875 L 254.8125 109.171875 L 254.8125 104.230469 L 264.925781 104.230469 L 264.925781 93.558594 L 254.8125 93.558594 L 254.8125 88.914062 L 265.847656 88.914062 L 265.847656 78.441406 Z M 183.710938 104.773438 L 187.09375 90.25 L 189.667969 104.773438 Z M 194.199219 78.34375 L 180.011719 78.34375 L 167.257812 119.742188 L 180.714844 119.742188 L 181.910156 114.011719 L 191.796875 114.011719 L 192.835938 119.742188 L 206.644531 119.742188 Z M 100.652344 106.796875 L 93.964844 119.644531 L 64.875 119.644531 L 81.007812 90.101562 L 66.101562 90.101562 L 72.3125 78.34375 L 100.652344 78.34375 L 85.523438 106.796875 Z M 84.03125 60.164062 C 65.46875 60.164062 50.421875 77.945312 50.421875 99.882812 C 50.421875 121.820312 65.46875 139.601562 84.03125 139.601562 C 102.589844 139.601562 117.636719 121.820312 117.636719 99.882812 C 117.636719 77.945312 102.589844 60.164062 84.03125 60.164062 Z M 83.265625 13.070312 L 83.265625 0 C 37.246094 0.242188 0 44.398438 0 98.84375 C 0 99.09375 0.015625 99.335938 0.015625 99.585938 L 11.042969 99.585938 C 11.175781 52.253906 43.34375 13.863281 83.265625 13.070312 Z M 83.265625 40.328125 L 83.265625 27.269531 C 83.179688 27.265625 83.097656 27.257812 83.015625 27.257812 C 49.355469 27.257812 22.070312 59.507812 22.070312 99.289062 C 22.070312 99.390625 22.078125 99.488281 22.078125 99.585938 L 33.128906 99.585938 C 33.59375 67.097656 55.777344 40.878906 83.265625 40.328125 Z M 83.265625 40.328125 "/>
</g>
</svg>
